M48
INCH,TZ
T1C0.0472
T2C0.0669
T3C0.0748
T4C0.1181
T5C0.1614
%
G90
G05
T1
X35236Y-33720
X35236Y-34409
X37992Y-33720
X37992Y-34409
T2
X53150Y-26260
X56693Y-26260
X45669Y-34685
X49213Y-34685
X71929Y-50354
X75472Y-50354
X40831Y-49674
X42602Y-52743
X75669Y-28071
X79213Y-28071
X83169Y-43701
X86713Y-43701
X68150Y-33740
X71693Y-33740
X64409Y-48720
X67953Y-48720
X83150Y-36220
X86693Y-36220
X75669Y-43110
X79213Y-43110
X53150Y-33740
X56693Y-33740
X68150Y-41260
X71693Y-41260
X53150Y-41260
X56693Y-41260
X83150Y-28661
X86693Y-28661
X60669Y-33228
X64213Y-33228
X68150Y-18740
X71693Y-18740
X45669Y-42165
X49213Y-42165
X53150Y-18740
X56693Y-18740
X68150Y-26220
X71693Y-26220
X45669Y-27205
X49213Y-27205
X83150Y-21220
X86693Y-21220
X45669Y-19685
X49213Y-19685
X60669Y-18193
X64213Y-18193
X48635Y-50230
X52058Y-49313
X75669Y-20630
X79213Y-20630
X60669Y-25709
X64213Y-25709
X56890Y-48720
X60433Y-48720
X60669Y-40709
X64213Y-40709
X75669Y-35630
X79213Y-35630
T3
X52921Y-33740
X56921Y-33740
X67921Y-41260
X71921Y-41260
X52921Y-41260
X56921Y-41260
X82921Y-28661
X86921Y-28661
X60441Y-33228
X64441Y-33228
X67921Y-18740
X71921Y-18740
X45441Y-42165
X49441Y-42165
X52921Y-18740
X56921Y-18740
X67921Y-26220
X71921Y-26220
X45441Y-27205
X49441Y-27205
X82921Y-21220
X86921Y-21220
X45441Y-19685
X49441Y-19685
X60441Y-18193
X64441Y-18193
X48415Y-50289
X52278Y-49254
X75441Y-20630
X79441Y-20630
X60441Y-25709
X64441Y-25709
X56661Y-48720
X60661Y-48720
X60441Y-40709
X64441Y-40709
X75441Y-35630
X79441Y-35630
X52921Y-26260
X56921Y-26260
X45441Y-34685
X49441Y-34685
X71701Y-50354
X75701Y-50354
X40717Y-49477
X42717Y-52941
X75441Y-28071
X79441Y-28071
X82941Y-43701
X86941Y-43701
X67921Y-33740
X71921Y-33740
X64181Y-48720
X68181Y-48720
X82921Y-36220
X86921Y-36220
X75441Y-43110
X79441Y-43110
T4
X60941Y-26709
X61441Y-27709
X63441Y-27709
X63941Y-26709
X57161Y-49720
X57661Y-50720
X59661Y-50720
X60161Y-49720
X60941Y-41709
X61441Y-42709
X63441Y-42709
X63941Y-41709
X75941Y-36630
X76441Y-37630
X78441Y-37630
X78941Y-36630
X53421Y-27260
X53921Y-28260
X55921Y-28260
X56421Y-27260
X45941Y-35685
X46441Y-36685
X48441Y-36685
X48941Y-35685
X72201Y-51354
X72701Y-52354
X74701Y-52354
X75201Y-51354
X39484Y-51343
X40101Y-50410
X40484Y-53075
X41601Y-53008
X75941Y-29071
X76441Y-30071
X78441Y-30071
X78941Y-29071
X83441Y-44701
X83941Y-45701
X85941Y-45701
X86441Y-44701
X68421Y-34740
X68921Y-35740
X70921Y-35740
X71421Y-34740
X64681Y-49720
X65181Y-50720
X67181Y-50720
X67681Y-49720
X83421Y-37220
X83921Y-38220
X85921Y-38220
X86421Y-37220
X75941Y-44110
X76441Y-45110
X78441Y-45110
X78941Y-44110
X53421Y-34740
X53921Y-35740
X55921Y-35740
X56421Y-34740
X68421Y-42260
X68921Y-43260
X70921Y-43260
X71421Y-42260
X53421Y-42260
X53921Y-43260
X55921Y-43260
X56421Y-42260
X83421Y-29661
X83921Y-30661
X85921Y-30661
X86421Y-29661
X60941Y-34228
X61441Y-35228
X63441Y-35228
X63941Y-34228
X68421Y-19740
X68921Y-20740
X70921Y-20740
X71421Y-19740
X45941Y-43165
X46441Y-44165
X48441Y-44165
X48941Y-43165
X53421Y-19740
X53921Y-20740
X55921Y-20740
X56421Y-19740
X68421Y-27220
X68921Y-28220
X70921Y-28220
X71421Y-27220
X45941Y-28205
X46441Y-29205
X48441Y-29205
X48941Y-28205
X83421Y-22220
X83921Y-23220
X85921Y-23220
X86421Y-22220
X45941Y-20685
X46441Y-21685
X48441Y-21685
X48941Y-20685
X60941Y-19193
X61441Y-20193
X63441Y-20193
X63941Y-19193
X49156Y-51126
X49898Y-51962
X51830Y-51445
X52054Y-50349
X75941Y-21630
X76441Y-22630
X78441Y-22630
X78941Y-21630
T5
X69921Y-26220
X47441Y-27205
X84921Y-21220
X47441Y-19685
X62441Y-18193
X50346Y-49772
X77441Y-20630
X62441Y-25709
X58661Y-48720
X62441Y-40709
X77441Y-35630
X54921Y-26260
X47441Y-34685
X73701Y-50354
X41717Y-51209
X77441Y-28071
X84941Y-43701
X69921Y-33740
X66181Y-48720
X84921Y-36220
X77441Y-43110
X54921Y-33740
X69921Y-41260
X54921Y-41260
X84921Y-28661
X62441Y-33228
X69921Y-18740
X47441Y-42165
X54921Y-18740
T0
M30
