M48
INCH,TZ
T1C0.0118
T2C0.0320
T3C0.0394
T4C0.0512
T5C0.0591
T6C0.0866
T7C0.1614
%
G90
G05
T1
X36684Y-39046
X37323Y-27795
X37441Y-17402
X37815Y-26695
X37835Y-20232
X38071Y-26693
X38150Y-17703
X38150Y-19213
X38386Y-50886
X38681Y-51378
X38785Y-20703
X39528Y-19703
X39528Y-27087
X39843Y-21220
X40108Y-21703
X40118Y-34055
X40423Y-22703
X40551Y-27087
X40591Y-26732
X40620Y-23703
X40748Y-34941
X40827Y-24703
X40846Y-32972
X41063Y-25423
X41339Y-25984
X41468Y-26406
X41575Y-20236
X41575Y-25669
X41614Y-22323
X41614Y-17323
X41614Y-23228
X41614Y-24370
X41614Y-25197
X41614Y-16378
X41614Y-21339
X41831Y-34055
X41831Y-38189
X42008Y-29409
X42126Y-47047
X42431Y-38494
X42717Y-33169
X42992Y-48248
X43002Y-34055
X43029Y-47817
X43077Y-48561
X43214Y-46068
X43406Y-18898
X43482Y-27206
X43612Y-35335
X43780Y-29272
X43839Y-38514
X43859Y-33169
X43927Y-24724
X43957Y-27224
X43986Y-18317
X43996Y-34843
X43996Y-44193
X44094Y-40256
X44094Y-40650
X44291Y-48031
X44390Y-29783
X44409Y-43878
X44488Y-23543
X44508Y-36457
X44587Y-30610
X44843Y-51032
X44882Y-31201
X44980Y-44783
X44980Y-50610
X45079Y-46457
X45177Y-22244
X45276Y-32992
X45591Y-24213
X45669Y-17520
X45709Y-48031
X45748Y-25768
X45778Y-32384
X45807Y-32835
X45827Y-17106
X45906Y-23504
X45965Y-25098
X46004Y-39252
X46053Y-39944
X46063Y-47359
X46122Y-18543
X46161Y-48252
X46260Y-34449
X46417Y-47968
X47434Y-46663
X47559Y-31309
X47648Y-49705
X47885Y-46848
X48130Y-26161
X48150Y-48091
X48241Y-47592
X48395Y-25938
X48425Y-18484
X48653Y-45966
X48799Y-33681
X48996Y-39961
X49016Y-17421
X49055Y-23425
X49055Y-24980
X49272Y-31969
X49311Y-23780
X49331Y-30157
X49331Y-45059
X49350Y-26280
X49370Y-46644
X49390Y-17441
X49390Y-32874
X49390Y-39961
X49429Y-37638
X49528Y-22618
X49596Y-46073
X49902Y-17559
X50177Y-19291
X50492Y-45866
X50531Y-22067
X50591Y-34252
X50689Y-18307
X51083Y-39961
X51104Y-47342
X51181Y-17323
X51181Y-26673
X51181Y-32283
X51378Y-44783
X51398Y-47485
X51437Y-21181
X51575Y-18209
X51713Y-25551
X51791Y-35472
X51890Y-20512
X51890Y-27992
X51890Y-42972
X52067Y-22028
X52353Y-17915
X52362Y-17087
X52461Y-43898
X52717Y-44882
X52904Y-31230
X52953Y-51772
X53150Y-39134
X53189Y-51772
X53278Y-23750
X53287Y-31614
X53346Y-16053
X53366Y-16575
X53406Y-24075
X53425Y-38960
X54114Y-18031
X54331Y-46752
X55630Y-50433
X56142Y-44882
X56299Y-46358
X56299Y-47146
X56299Y-47933
X56394Y-16532
X56437Y-24075
X56535Y-39075
X56555Y-31535
X56693Y-16142
X56713Y-36506
X56762Y-23750
X56811Y-21693
X56811Y-29173
X56811Y-44154
X56988Y-46555
X57008Y-46181
X57047Y-39016
X57067Y-31240
X57677Y-22638
X57677Y-24016
X57933Y-44882
X58071Y-18169
X58071Y-32382
X58209Y-21614
X58268Y-23150
X58465Y-20630
X58465Y-37598
X58661Y-36319
X58760Y-22539
X58848Y-16722
X58858Y-19429
X58878Y-41594
X58957Y-32382
X59055Y-39075
X59154Y-21053
X59154Y-24705
X59272Y-20020
X59370Y-34980
X59409Y-27421
X59409Y-42421
X59592Y-18460
X59626Y-22480
X59646Y-23917
X59744Y-25492
X59823Y-15807
X59843Y-16634
X60118Y-15807
X60138Y-46555
X60236Y-43406
X60472Y-31201
X60482Y-21309
X60531Y-38386
X60551Y-15945
X60551Y-51614
X60669Y-24311
X60728Y-47825
X60748Y-31102
X60827Y-21654
X60827Y-47146
X60913Y-15945
X60925Y-23622
X60925Y-38484
X61181Y-37018
X61319Y-44154
X61516Y-46260
X62205Y-47628
X62451Y-46801
X62500Y-35925
X62598Y-21654
X63091Y-44232
X63091Y-51043
X63179Y-32146
X63514Y-16874
X63563Y-37756
X63642Y-24449
X63750Y-45079
X63846Y-30976
X63878Y-21654
X63878Y-47047
X63898Y-23602
X63976Y-16043
X64035Y-21969
X64055Y-38465
X64154Y-23937
X64222Y-46211
X64252Y-30886
X64291Y-36161
X64311Y-16988
X64331Y-28602
X64331Y-43602
X64429Y-21280
X64508Y-16181
X64528Y-46614
X64961Y-31398
X64961Y-32579
X65059Y-21024
X65256Y-22835
X65335Y-45768
X65335Y-45079
X65512Y-18091
X65522Y-39341
X65610Y-22500
X65709Y-21063
X65846Y-40000
X65876Y-31230
X65876Y-36585
X66043Y-15650
X66437Y-36900
X66555Y-22421
X66614Y-44331
X66634Y-17815
X66634Y-18209
X66634Y-38976
X66831Y-34154
X66890Y-20453
X66890Y-27933
X66890Y-35453
X66890Y-42972
X66929Y-37313
X67118Y-32185
X67121Y-26186
X67234Y-24400
X67362Y-39744
X67717Y-47185
X67913Y-46457
X68031Y-51614
X68110Y-16634
X68110Y-39370
X68130Y-45079
X68150Y-32028
X68297Y-24400
X68307Y-31673
X68307Y-39075
X68386Y-24094
X68417Y-43986
X68428Y-16609
X68898Y-25492
X68957Y-24862
X68996Y-32884
X69469Y-32677
X69606Y-19862
X69882Y-45571
X70268Y-52047
X70669Y-44703
X70965Y-17598
X71358Y-38976
X71457Y-15748
X71457Y-45472
X71476Y-24094
X71496Y-31654
X71535Y-17047
X71565Y-45010
X71606Y-43751
X71644Y-23711
X71654Y-31398
X71693Y-47500
X71804Y-39043
X71811Y-21634
X71811Y-29114
X71811Y-36634
X72008Y-45453
X72028Y-24107
X72146Y-25591
X72146Y-32185
X72146Y-47480
X72146Y-48091
X72244Y-32972
X72449Y-44497
X72972Y-26004
X72992Y-32382
X73012Y-23425
X73091Y-30748
X73110Y-21594
X73228Y-37205
X73287Y-16142
X73307Y-45866
X73425Y-28445
X73593Y-43435
X73720Y-32185
X73720Y-34154
X73878Y-48661
X74016Y-18307
X74016Y-19587
X74016Y-19980
X74114Y-26575
X74134Y-27933
X74173Y-46358
X74213Y-34744
X74213Y-36122
X74291Y-30138
X74409Y-44823
X74518Y-22539
X74562Y-41678
X74581Y-25098
X74606Y-25591
X74606Y-26594
X74606Y-46673
X74862Y-25315
X74961Y-17815
X75000Y-32736
X75138Y-30669
X75177Y-24173
X75315Y-48169
X75354Y-47835
X75384Y-25079
X75492Y-33504
X75591Y-53248
X75630Y-40945
X75738Y-39734
X75866Y-33445
X75906Y-18406
X75984Y-25984
X75989Y-17613
X75998Y-40931
X76102Y-24390
X76102Y-25167
X76220Y-31417
X76673Y-52362
X77323Y-38602
X78051Y-42195
X78297Y-27441
X78465Y-19301
X78780Y-39528
X78858Y-34774
X78976Y-33327
X78996Y-26909
X78996Y-25994
X79035Y-18504
X79035Y-33760
X79035Y-40846
X79114Y-27441
X79156Y-26553
X79291Y-24114
X79313Y-38348
X79331Y-30965
X79331Y-41043
X79370Y-23799
X79429Y-18819
X79626Y-38287
X79626Y-46004
X79783Y-42047
X79823Y-40039
X79843Y-26870
X80000Y-34547
X80236Y-20945
X80315Y-28248
X80512Y-20492
X80748Y-41654
X81171Y-26841
X81299Y-26378
X81309Y-41329
X81398Y-19587
X81427Y-33858
X81791Y-21457
X81791Y-28346
X81791Y-35728
X81791Y-42224
X81791Y-47047
X81909Y-45413
X81988Y-30453
X82185Y-17461
X82382Y-18504
X82421Y-27205
X82461Y-25886
X82579Y-38976
X82677Y-46457
X82776Y-18209
X82776Y-23917
X82894Y-26949
X83022Y-34400
X83169Y-18701
X83317Y-41880
X83327Y-26614
X83465Y-19094
X83465Y-34055
X83484Y-41555
X83661Y-32480
X84961Y-40394
X85039Y-31289
X85512Y-39685
X86201Y-40354
X86338Y-26359
X86388Y-41191
X86516Y-19154
X86516Y-33957
X86683Y-41880
X86693Y-26831
X86791Y-18976
X86811Y-24114
X86831Y-31486
X86835Y-33351
X86909Y-39075
T2
X37598Y-30733
X39598Y-30733
X38071Y-29370
X39071Y-29370
X40071Y-29370
X41071Y-29370
X36291Y-16232
X36291Y-17232
X36291Y-18232
X36291Y-19232
X36291Y-20232
X36291Y-21232
X36291Y-22232
X36291Y-23232
X36291Y-24232
X36291Y-25232
X36291Y-26232
X36291Y-27232
X36803Y-16703
X36803Y-17703
X36803Y-18703
X36803Y-19703
X36803Y-20703
X36803Y-21703
X36803Y-22703
X36803Y-23703
X36803Y-24703
X36803Y-25703
X36803Y-26703
X36803Y-27703
X42291Y-16232
X42291Y-17232
X42291Y-18232
X42291Y-19232
X42291Y-20232
X42291Y-21232
X42291Y-22232
X42291Y-23232
X42291Y-24232
X42291Y-25232
X42291Y-26232
X42291Y-27232
X42803Y-16703
X42803Y-17703
X42803Y-18703
X42803Y-19703
X42803Y-20703
X42803Y-21703
X42803Y-22703
X42803Y-23703
X42803Y-24703
X42803Y-25703
X42803Y-26703
X42803Y-27703
X40433Y-31614
X37598Y-31619
X39598Y-31619
X40433Y-30748
T3
X36417Y-40157
X36417Y-41142
X36417Y-42126
X42126Y-40157
X42126Y-42126
X42480Y-29921
X42480Y-30945
X42480Y-31929
X69764Y-46791
X70787Y-46791
X71772Y-46791
X44291Y-31693
X44291Y-32677
X44291Y-33701
X73031Y-37854
X73031Y-38878
X73031Y-39862
T4
X35433Y-29232
X35433Y-31791
T6
X36024Y-36811
X42126Y-36811
T7
X81024Y-24331
X51024Y-23465
X81024Y-39370
X41339Y-45197
X51024Y-38425
T3
G00X35846Y-32894
M15
G01X36043Y-32894
M16
G05
G00X35846Y-35236
M15
G01X36043Y-35236
M16
G05
G00X37028Y-32894
M15
G01X37224Y-32894
M16
G05
G00X37028Y-35236
M15
G01X37224Y-35236
M16
G05
G00X38602Y-32894
M15
G01X38799Y-32894
M16
G05
G00X38602Y-35236
M15
G01X38799Y-35236
M16
G05
G00X39193Y-33583
M15
G01X39390Y-33583
M16
G05
G00X39193Y-34547
M15
G01X39390Y-34547
M16
G05
T5
G00X39114Y-38937
M15
G01X39626Y-38937
M16
G05
G00X39114Y-43346
M15
G01X39626Y-43346
M16
G05
T0
M30
