G04 #@! TF.GenerationSoftware,KiCad,Pcbnew,(5.1.6)-1*
G04 #@! TF.CreationDate,2020-10-02T00:10:23+10:00*
G04 #@! TF.ProjectId,SofleKeyboard,536f666c-654b-4657-9962-6f6172642e6b,rev?*
G04 #@! TF.SameCoordinates,Original*
G04 #@! TF.FileFunction,Soldermask,Top*
G04 #@! TF.FilePolarity,Negative*
%FSLAX46Y46*%
G04 Gerber Fmt 4.6, Leading zero omitted, Abs format (unit mm)*
G04 Created by KiCad (PCBNEW (5.1.6)-1) date 2020-10-02 00:10:23*
%MOMM*%
%LPD*%
G01*
G04 APERTURE LIST*
%ADD10R,2.400000X1.400000*%
%ADD11C,2.300000*%
%ADD12C,3.400000*%
%ADD13C,2.100000*%
%ADD14R,2.700000X2.400000*%
%ADD15C,4.500000*%
%ADD16R,2.000000X1.400000*%
%ADD17R,1.700000X1.350000*%
%ADD18C,0.100000*%
%ADD19R,1.350000X1.700000*%
%ADD20C,1.924000*%
%ADD21R,1.924000X1.924000*%
%ADD22C,4.400000*%
%ADD23C,1.797000*%
%ADD24R,1.543000X1.035000*%
%ADD25C,2.400000*%
%ADD26C,5.100000*%
%ADD27R,3.600000X2.400000*%
%ADD28C,1.600000*%
%ADD29O,2.900000X2.100000*%
G04 APERTURE END LIST*
D10*
X114750000Y-122750000D03*
X114750000Y-121000000D03*
X119150000Y-122750000D03*
X119150000Y-121000000D03*
D11*
X220780000Y-53900000D03*
D12*
X211890000Y-56440001D03*
D11*
X210620000Y-53900000D03*
D13*
X211200000Y-53900000D03*
D12*
X218240000Y-58980000D03*
D14*
X221400000Y-59020000D03*
X208700000Y-56480000D03*
D13*
X220200000Y-53900000D03*
D12*
X219510000Y-56440000D03*
D15*
X215700000Y-53900000D03*
D12*
X213160000Y-58980000D03*
D16*
X213300000Y-47525000D03*
X213300000Y-49275000D03*
X218100000Y-47525000D03*
X218100000Y-49275000D03*
D11*
X201780000Y-109500000D03*
D12*
X192890000Y-112040001D03*
D11*
X191620000Y-109500000D03*
D13*
X192200000Y-109500000D03*
D12*
X199240000Y-114580000D03*
D14*
X202400000Y-114620000D03*
X189700000Y-112080000D03*
D13*
X201200000Y-109500000D03*
D12*
X200510000Y-112040000D03*
D15*
X196700000Y-109500000D03*
D12*
X194160000Y-114580000D03*
D16*
X194300000Y-103125000D03*
X194300000Y-104875000D03*
X199100000Y-103125000D03*
X199100000Y-104875000D03*
D11*
X220780000Y-72800000D03*
D12*
X211890000Y-75340001D03*
D11*
X210620000Y-72800000D03*
D13*
X211200000Y-72800000D03*
D12*
X218240000Y-77880000D03*
D14*
X221400000Y-77920000D03*
X208700000Y-75380000D03*
D13*
X220200000Y-72800000D03*
D12*
X219510000Y-75340000D03*
D15*
X215700000Y-72800000D03*
D12*
X213160000Y-77880000D03*
D16*
X213300000Y-66425000D03*
X213300000Y-68175000D03*
X218100000Y-66425000D03*
X218100000Y-68175000D03*
D11*
X201780000Y-71300000D03*
D12*
X192890000Y-73840001D03*
D11*
X191620000Y-71300000D03*
D13*
X192200000Y-71300000D03*
D12*
X199240000Y-76380000D03*
D14*
X202400000Y-76420000D03*
X189700000Y-73880000D03*
D13*
X201200000Y-71300000D03*
D12*
X200510000Y-73840000D03*
D15*
X196700000Y-71300000D03*
D12*
X194160000Y-76380000D03*
D16*
X194300000Y-64925000D03*
X194300000Y-66675000D03*
X199100000Y-64925000D03*
X199100000Y-66675000D03*
D11*
X201780000Y-90500000D03*
D12*
X192890000Y-93040001D03*
D11*
X191620000Y-90500000D03*
D13*
X192200000Y-90500000D03*
D12*
X199240000Y-95580000D03*
D14*
X202400000Y-95620000D03*
X189700000Y-93080000D03*
D13*
X201200000Y-90500000D03*
D12*
X200510000Y-93040000D03*
D15*
X196700000Y-90500000D03*
D12*
X194160000Y-95580000D03*
D16*
X194300000Y-84125000D03*
X194300000Y-85875000D03*
X199100000Y-84125000D03*
X199100000Y-85875000D03*
D11*
X144580000Y-47600000D03*
D12*
X135690000Y-50140001D03*
D11*
X134420000Y-47600000D03*
D13*
X135000000Y-47600000D03*
D12*
X142040000Y-52680000D03*
D14*
X145200000Y-52720000D03*
X132500000Y-50180000D03*
D13*
X144000000Y-47600000D03*
D12*
X143310000Y-50140000D03*
D15*
X139500000Y-47600000D03*
D12*
X136960000Y-52680000D03*
D16*
X137100000Y-41225000D03*
X137100000Y-42975000D03*
X141900000Y-41225000D03*
X141900000Y-42975000D03*
D17*
X138000000Y-117750000D03*
X141550000Y-117750000D03*
X138000000Y-119750000D03*
X141550000Y-119750000D03*
X138000000Y-121750000D03*
X141550000Y-121750000D03*
X115725000Y-118000000D03*
X119275000Y-118000000D03*
D18*
G36*
X107902933Y-117364183D02*
G01*
X109072067Y-116689183D01*
X109922067Y-118161427D01*
X108752933Y-118836427D01*
X107902933Y-117364183D01*
G37*
G36*
X109677933Y-120438573D02*
G01*
X110847067Y-119763573D01*
X111697067Y-121235817D01*
X110527933Y-121910817D01*
X109677933Y-120438573D01*
G37*
D17*
X105225000Y-97000000D03*
X108775000Y-97000000D03*
D19*
X207750000Y-104975000D03*
X207750000Y-108525000D03*
X188500000Y-104975000D03*
X188500000Y-108525000D03*
X169250000Y-100475000D03*
X169250000Y-104025000D03*
X150000000Y-98000000D03*
X150000000Y-101550000D03*
X131000000Y-101500000D03*
X131000000Y-105050000D03*
X112000000Y-100975000D03*
X112000000Y-104525000D03*
X207750000Y-86000000D03*
X207750000Y-89550000D03*
X188500000Y-87000000D03*
X188500000Y-90550000D03*
X169725000Y-81750000D03*
X169725000Y-85300000D03*
X149750000Y-81000000D03*
X149750000Y-84550000D03*
X131250000Y-82000000D03*
X131250000Y-85550000D03*
X128500000Y-82000000D03*
X128500000Y-85550000D03*
X207750000Y-67000000D03*
X207750000Y-70550000D03*
X188250000Y-65000000D03*
X188250000Y-68550000D03*
X169500000Y-61975000D03*
X169500000Y-65525000D03*
X150250000Y-60500000D03*
X150250000Y-64050000D03*
D17*
X126600000Y-64900000D03*
X130150000Y-64900000D03*
X126550000Y-66750000D03*
X130100000Y-66750000D03*
D19*
X207750000Y-49750000D03*
X207750000Y-53300000D03*
X188000000Y-48475000D03*
X188000000Y-52025000D03*
X169250000Y-43750000D03*
X169250000Y-47300000D03*
X150500000Y-42475000D03*
X150500000Y-46025000D03*
X131000000Y-43975000D03*
X131000000Y-47525000D03*
X128750000Y-44000000D03*
X128750000Y-47550000D03*
D11*
X192280000Y-127900000D03*
D12*
X183390000Y-130440001D03*
D11*
X182120000Y-127900000D03*
D13*
X182700000Y-127900000D03*
D12*
X189740000Y-132980000D03*
D14*
X192900000Y-133020000D03*
X180200000Y-130480000D03*
D13*
X191700000Y-127900000D03*
D12*
X191010000Y-130440000D03*
D15*
X187200000Y-127900000D03*
D12*
X184660000Y-132980000D03*
D16*
X184800000Y-121525000D03*
X184800000Y-123275000D03*
X189600000Y-121525000D03*
X189600000Y-123275000D03*
D11*
X173180000Y-123750000D03*
D12*
X164290000Y-126290001D03*
D11*
X163020000Y-123750000D03*
D13*
X163600000Y-123750000D03*
D12*
X170640000Y-128830000D03*
D14*
X173800000Y-128870000D03*
X161100000Y-126330000D03*
D13*
X172600000Y-123750000D03*
D12*
X171910000Y-126290000D03*
D15*
X168100000Y-123750000D03*
D12*
X165560000Y-128830000D03*
D16*
X165700000Y-117375000D03*
X165700000Y-119125000D03*
X170500000Y-117375000D03*
X170500000Y-119125000D03*
D11*
X154080000Y-123750000D03*
D12*
X145190000Y-126290001D03*
D11*
X143920000Y-123750000D03*
D13*
X144500000Y-123750000D03*
D12*
X151540000Y-128830000D03*
D14*
X154700000Y-128870000D03*
X142000000Y-126330000D03*
D13*
X153500000Y-123750000D03*
D12*
X152810000Y-126290000D03*
D15*
X149000000Y-123750000D03*
D12*
X146460000Y-128830000D03*
D16*
X146600000Y-117375000D03*
X146600000Y-119125000D03*
X151400000Y-117375000D03*
X151400000Y-119125000D03*
D11*
X132786903Y-125105199D03*
D12*
X124857223Y-129859553D03*
D11*
X122973097Y-127734801D03*
D13*
X123533334Y-127584686D03*
D12*
X131648252Y-130669503D03*
D18*
G36*
X133717514Y-131398789D02*
G01*
X133096348Y-129080567D01*
X135704348Y-128381755D01*
X136325514Y-130699977D01*
X133717514Y-131398789D01*
G37*
G36*
X120792855Y-132232339D02*
G01*
X120171689Y-129914117D01*
X122779689Y-129215305D01*
X123400855Y-131533527D01*
X120792855Y-132232339D01*
G37*
D13*
X132226666Y-125255314D03*
D12*
X132217578Y-127887351D03*
D15*
X127880000Y-126420000D03*
D12*
X126741349Y-131984304D03*
D18*
G36*
X124696559Y-119948422D02*
G01*
X125058906Y-121300718D01*
X123127055Y-121818356D01*
X122764708Y-120466060D01*
X124696559Y-119948422D01*
G37*
G36*
X125149492Y-121638792D02*
G01*
X125511839Y-122991088D01*
X123579988Y-123508726D01*
X123217641Y-122156430D01*
X125149492Y-121638792D01*
G37*
G36*
X129333003Y-118706090D02*
G01*
X129695350Y-120058386D01*
X127763499Y-120576024D01*
X127401152Y-119223728D01*
X129333003Y-118706090D01*
G37*
G36*
X129785936Y-120396460D02*
G01*
X130148283Y-121748756D01*
X128216432Y-122266394D01*
X127854085Y-120914098D01*
X129785936Y-120396460D01*
G37*
D11*
X108500000Y-134469409D03*
D12*
X101855295Y-128040444D03*
D11*
X103420000Y-125670591D03*
D13*
X103710000Y-126172886D03*
D12*
X102830591Y-134809705D03*
D18*
G36*
X102661720Y-136997211D02*
G01*
X104740180Y-135797211D01*
X106090180Y-138135479D01*
X104011720Y-139335479D01*
X102661720Y-136997211D01*
G37*
G36*
X98511424Y-124728688D02*
G01*
X100589884Y-123528688D01*
X101939884Y-125866956D01*
X99861424Y-127066956D01*
X98511424Y-124728688D01*
G37*
D13*
X108210000Y-133967114D03*
D12*
X105665295Y-134639557D03*
D15*
X105960000Y-130070000D03*
D12*
X100290591Y-130410295D03*
D18*
G36*
X111387130Y-125320064D02*
G01*
X110174694Y-126020064D01*
X109174694Y-124288014D01*
X110387130Y-123588014D01*
X111387130Y-125320064D01*
G37*
G36*
X109871585Y-126195064D02*
G01*
X108659149Y-126895064D01*
X107659149Y-125163014D01*
X108871585Y-124463014D01*
X109871585Y-126195064D01*
G37*
G36*
X113787130Y-129476986D02*
G01*
X112574694Y-130176986D01*
X111574694Y-128444936D01*
X112787130Y-127744936D01*
X113787130Y-129476986D01*
G37*
G36*
X112271585Y-130351986D02*
G01*
X111059149Y-131051986D01*
X110059149Y-129319936D01*
X111271585Y-128619936D01*
X112271585Y-130351986D01*
G37*
D11*
X220830000Y-111000000D03*
D12*
X211940000Y-113540001D03*
D11*
X210670000Y-111000000D03*
D13*
X211250000Y-111000000D03*
D12*
X218290000Y-116080000D03*
D14*
X221450000Y-116120000D03*
X208750000Y-113580000D03*
D13*
X220250000Y-111000000D03*
D12*
X219560000Y-113540000D03*
D15*
X215750000Y-111000000D03*
D12*
X213210000Y-116080000D03*
D16*
X213350000Y-104625000D03*
X213350000Y-106375000D03*
X218150000Y-104625000D03*
X218150000Y-106375000D03*
D11*
X182680000Y-104800000D03*
D12*
X173790000Y-107340001D03*
D11*
X172520000Y-104800000D03*
D13*
X173100000Y-104800000D03*
D12*
X180140000Y-109880000D03*
D14*
X183300000Y-109920000D03*
X170600000Y-107380000D03*
D13*
X182100000Y-104800000D03*
D12*
X181410000Y-107340000D03*
D15*
X177600000Y-104800000D03*
D12*
X175060000Y-109880000D03*
D16*
X175200000Y-98425000D03*
X175200000Y-100175000D03*
X180000000Y-98425000D03*
X180000000Y-100175000D03*
D11*
X163680000Y-103400000D03*
D12*
X154790000Y-105940001D03*
D11*
X153520000Y-103400000D03*
D13*
X154100000Y-103400000D03*
D12*
X161140000Y-108480000D03*
D14*
X164300000Y-108520000D03*
X151600000Y-105980000D03*
D13*
X163100000Y-103400000D03*
D12*
X162410000Y-105940000D03*
D15*
X158600000Y-103400000D03*
D12*
X156060000Y-108480000D03*
D16*
X156200000Y-97025000D03*
X156200000Y-98775000D03*
X161000000Y-97025000D03*
X161000000Y-98775000D03*
D11*
X144580000Y-104800000D03*
D12*
X135690000Y-107340001D03*
D11*
X134420000Y-104800000D03*
D13*
X135000000Y-104800000D03*
D12*
X142040000Y-109880000D03*
D14*
X145200000Y-109920000D03*
X132500000Y-107380000D03*
D13*
X144000000Y-104800000D03*
D12*
X143310000Y-107340000D03*
D15*
X139500000Y-104800000D03*
D12*
X136960000Y-109880000D03*
D16*
X137100000Y-98425000D03*
X137100000Y-100175000D03*
X141900000Y-98425000D03*
X141900000Y-100175000D03*
D11*
X125580000Y-107100000D03*
D12*
X116690000Y-109640001D03*
D11*
X115420000Y-107100000D03*
D13*
X116000000Y-107100000D03*
D12*
X123040000Y-112180000D03*
D14*
X126200000Y-112220000D03*
X113500000Y-109680000D03*
D13*
X125000000Y-107100000D03*
D12*
X124310000Y-109640000D03*
D15*
X120500000Y-107100000D03*
D12*
X117960000Y-112180000D03*
D16*
X118100000Y-100725000D03*
X118100000Y-102475000D03*
X122900000Y-100725000D03*
X122900000Y-102475000D03*
D11*
X220780000Y-92000000D03*
D12*
X211890000Y-94540001D03*
D11*
X210620000Y-92000000D03*
D13*
X211200000Y-92000000D03*
D12*
X218240000Y-97080000D03*
D14*
X221400000Y-97120000D03*
X208700000Y-94580000D03*
D13*
X220200000Y-92000000D03*
D12*
X219510000Y-94540000D03*
D15*
X215700000Y-92000000D03*
D12*
X213160000Y-97080000D03*
D16*
X213300000Y-85625000D03*
X213300000Y-87375000D03*
X218100000Y-85625000D03*
X218100000Y-87375000D03*
D11*
X182680000Y-85700000D03*
D12*
X173790000Y-88240001D03*
D11*
X172520000Y-85700000D03*
D13*
X173100000Y-85700000D03*
D12*
X180140000Y-90780000D03*
D14*
X183300000Y-90820000D03*
X170600000Y-88280000D03*
D13*
X182100000Y-85700000D03*
D12*
X181410000Y-88240000D03*
D15*
X177600000Y-85700000D03*
D12*
X175060000Y-90780000D03*
D16*
X175200000Y-79325000D03*
X175200000Y-81075000D03*
X180000000Y-79325000D03*
X180000000Y-81075000D03*
D11*
X163680000Y-84400000D03*
D12*
X154790000Y-86940001D03*
D11*
X153520000Y-84400000D03*
D13*
X154100000Y-84400000D03*
D12*
X161140000Y-89480000D03*
D14*
X164300000Y-89520000D03*
X151600000Y-86980000D03*
D13*
X163100000Y-84400000D03*
D12*
X162410000Y-86940000D03*
D15*
X158600000Y-84400000D03*
D12*
X156060000Y-89480000D03*
D16*
X156200000Y-78025000D03*
X156200000Y-79775000D03*
X161000000Y-78025000D03*
X161000000Y-79775000D03*
D11*
X144580000Y-85700000D03*
D12*
X135690000Y-88240001D03*
D11*
X134420000Y-85700000D03*
D13*
X135000000Y-85700000D03*
D12*
X142040000Y-90780000D03*
D14*
X145200000Y-90820000D03*
X132500000Y-88280000D03*
D13*
X144000000Y-85700000D03*
D12*
X143310000Y-88240000D03*
D15*
X139500000Y-85700000D03*
D12*
X136960000Y-90780000D03*
D16*
X137100000Y-79325000D03*
X137100000Y-81075000D03*
X141900000Y-79325000D03*
X141900000Y-81075000D03*
D11*
X125580000Y-88100000D03*
D12*
X116690000Y-90640001D03*
D11*
X115420000Y-88100000D03*
D13*
X116000000Y-88100000D03*
D12*
X123040000Y-93180000D03*
D14*
X126200000Y-93220000D03*
X113500000Y-90680000D03*
D13*
X125000000Y-88100000D03*
D12*
X124310000Y-90640000D03*
D15*
X120500000Y-88100000D03*
D12*
X117960000Y-93180000D03*
D16*
X118100000Y-81725000D03*
X118100000Y-83475000D03*
X122900000Y-81725000D03*
X122900000Y-83475000D03*
D11*
X182680000Y-66600000D03*
D12*
X173790000Y-69140001D03*
D11*
X172520000Y-66600000D03*
D13*
X173100000Y-66600000D03*
D12*
X180140000Y-71680000D03*
D14*
X183300000Y-71720000D03*
X170600000Y-69180000D03*
D13*
X182100000Y-66600000D03*
D12*
X181410000Y-69140000D03*
D15*
X177600000Y-66600000D03*
D12*
X175060000Y-71680000D03*
D16*
X175200000Y-60225000D03*
X175200000Y-61975000D03*
X180000000Y-60225000D03*
X180000000Y-61975000D03*
D11*
X163680000Y-65300000D03*
D12*
X154790000Y-67840001D03*
D11*
X153520000Y-65300000D03*
D13*
X154100000Y-65300000D03*
D12*
X161140000Y-70380000D03*
D14*
X164300000Y-70420000D03*
X151600000Y-67880000D03*
D13*
X163100000Y-65300000D03*
D12*
X162410000Y-67840000D03*
D15*
X158600000Y-65300000D03*
D12*
X156060000Y-70380000D03*
D16*
X156200000Y-58925000D03*
X156200000Y-60675000D03*
X161000000Y-58925000D03*
X161000000Y-60675000D03*
D11*
X144580000Y-66700000D03*
D12*
X135690000Y-69240001D03*
D11*
X134420000Y-66700000D03*
D13*
X135000000Y-66700000D03*
D12*
X142040000Y-71780000D03*
D14*
X145200000Y-71820000D03*
X132500000Y-69280000D03*
D13*
X144000000Y-66700000D03*
D12*
X143310000Y-69240000D03*
D15*
X139500000Y-66700000D03*
D12*
X136960000Y-71780000D03*
D16*
X137100000Y-60325000D03*
X137100000Y-62075000D03*
X141900000Y-60325000D03*
X141900000Y-62075000D03*
D11*
X125580000Y-69100000D03*
D12*
X116690000Y-71640001D03*
D11*
X115420000Y-69100000D03*
D13*
X116000000Y-69100000D03*
D12*
X123040000Y-74180000D03*
D14*
X126200000Y-74220000D03*
X113500000Y-71680000D03*
D13*
X125000000Y-69100000D03*
D12*
X124310000Y-71640000D03*
D15*
X120500000Y-69100000D03*
D12*
X117960000Y-74180000D03*
D16*
X118100000Y-62725000D03*
X118100000Y-64475000D03*
X122900000Y-62725000D03*
X122900000Y-64475000D03*
D11*
X201780000Y-52400000D03*
D12*
X192890000Y-54940001D03*
D11*
X191620000Y-52400000D03*
D13*
X192200000Y-52400000D03*
D12*
X199240000Y-57480000D03*
D14*
X202400000Y-57520000D03*
X189700000Y-54980000D03*
D13*
X201200000Y-52400000D03*
D12*
X200510000Y-54940000D03*
D15*
X196700000Y-52400000D03*
D12*
X194160000Y-57480000D03*
D16*
X194300000Y-46025000D03*
X194300000Y-47775000D03*
X199100000Y-46025000D03*
X199100000Y-47775000D03*
D11*
X182680000Y-47600000D03*
D12*
X173790000Y-50140001D03*
D11*
X172520000Y-47600000D03*
D13*
X173100000Y-47600000D03*
D12*
X180140000Y-52680000D03*
D14*
X183300000Y-52720000D03*
X170600000Y-50180000D03*
D13*
X182100000Y-47600000D03*
D12*
X181410000Y-50140000D03*
D15*
X177600000Y-47600000D03*
D12*
X175060000Y-52680000D03*
D16*
X175200000Y-41225000D03*
X175200000Y-42975000D03*
X180000000Y-41225000D03*
X180000000Y-42975000D03*
D11*
X163680000Y-46210000D03*
D12*
X154790000Y-48750001D03*
D11*
X153520000Y-46210000D03*
D13*
X154100000Y-46210000D03*
D12*
X161140000Y-51290000D03*
D14*
X164300000Y-51330000D03*
X151600000Y-48790000D03*
D13*
X163100000Y-46210000D03*
D12*
X162410000Y-48750000D03*
D15*
X158600000Y-46210000D03*
D12*
X156060000Y-51290000D03*
D16*
X156200000Y-39835000D03*
X156200000Y-41585000D03*
X161000000Y-39835000D03*
X161000000Y-41585000D03*
D11*
X125580000Y-50000000D03*
D12*
X116690000Y-52540001D03*
D11*
X115420000Y-50000000D03*
D13*
X116000000Y-50000000D03*
D12*
X123040000Y-55080000D03*
D14*
X126200000Y-55120000D03*
X113500000Y-52580000D03*
D13*
X125000000Y-50000000D03*
D12*
X124310000Y-52540000D03*
D15*
X120500000Y-50000000D03*
D12*
X117960000Y-55080000D03*
D16*
X118100000Y-43625000D03*
X118100000Y-45375000D03*
X122900000Y-43625000D03*
X122900000Y-45375000D03*
D20*
X112500000Y-85600000D03*
X112500000Y-83000000D03*
D21*
X112500000Y-80500000D03*
D20*
X177200000Y-118850000D03*
X179800000Y-118850000D03*
D21*
X182300000Y-118850000D03*
D20*
X185500000Y-96150000D03*
X185500000Y-98750000D03*
D21*
X185500000Y-101250000D03*
D10*
X103550000Y-87375000D03*
X103550000Y-85625000D03*
X107950000Y-87375000D03*
X107950000Y-85625000D03*
X179800000Y-116375000D03*
X179800000Y-114625000D03*
X184200000Y-116375000D03*
X184200000Y-114625000D03*
X156300000Y-120625000D03*
X156300000Y-118875000D03*
X160700000Y-120625000D03*
X160700000Y-118875000D03*
X199700000Y-60375000D03*
X199700000Y-62125000D03*
X195300000Y-60375000D03*
X195300000Y-62125000D03*
X156300000Y-55875000D03*
X156300000Y-54125000D03*
X160700000Y-55875000D03*
X160700000Y-54125000D03*
X122700000Y-58625000D03*
X122700000Y-60375000D03*
X118300000Y-58625000D03*
X118300000Y-60375000D03*
D20*
X93478815Y-47505745D03*
X108718815Y-65285745D03*
X93478815Y-57665745D03*
X108718815Y-55125745D03*
X108718815Y-50045745D03*
X93478815Y-67825745D03*
X108718815Y-47505745D03*
X108718815Y-42425745D03*
X93478815Y-62745745D03*
X108718815Y-70365745D03*
X93478815Y-55125745D03*
X93478815Y-44965745D03*
X93478815Y-50045745D03*
X93478815Y-52585745D03*
X93478815Y-65285745D03*
X93478815Y-60205745D03*
X108718815Y-62745745D03*
X108718815Y-60205745D03*
X93478815Y-70365745D03*
X108718815Y-67825745D03*
X108718815Y-44965745D03*
X93478815Y-42425745D03*
X108718815Y-57665745D03*
X108718815Y-52585745D03*
X92180000Y-41230000D03*
X92180000Y-43770000D03*
X92180000Y-46310000D03*
X92180000Y-48850000D03*
X92180000Y-51390000D03*
X92180000Y-53930000D03*
X92180000Y-56470000D03*
X92180000Y-59010000D03*
X92180000Y-61550000D03*
X92180000Y-64090000D03*
X92180000Y-66630000D03*
X92180000Y-69170000D03*
X107420000Y-69170000D03*
X107420000Y-66630000D03*
X107420000Y-64090000D03*
X107420000Y-61550000D03*
X107420000Y-59010000D03*
X107420000Y-56470000D03*
X107420000Y-53930000D03*
X107420000Y-51390000D03*
X107420000Y-48850000D03*
X107420000Y-46310000D03*
X107420000Y-43770000D03*
X107420000Y-41230000D03*
D22*
X107000000Y-93500000D03*
X91500000Y-93500000D03*
D23*
X104320000Y-74600000D03*
X101780000Y-74600000D03*
X99240000Y-74600000D03*
X96700000Y-74600000D03*
D24*
X94000000Y-74499620D03*
X94000000Y-75500380D03*
D25*
X90000000Y-80750000D03*
X90000000Y-74250000D03*
D24*
X96700000Y-68799620D03*
X96700000Y-69800380D03*
X99200000Y-68799620D03*
X99200000Y-69800380D03*
X101700000Y-68799620D03*
X101700000Y-69800380D03*
X104300000Y-68799620D03*
X104300000Y-69800380D03*
D23*
X100579272Y-80311965D03*
X95499272Y-80311965D03*
X100579272Y-78061965D03*
X95499272Y-78061965D03*
X102700000Y-78100000D03*
X102700000Y-80300000D03*
D26*
X205800000Y-100000000D03*
X129600000Y-97600000D03*
X129600000Y-59600000D03*
D25*
X107000000Y-107000000D03*
X107000000Y-102000000D03*
D27*
X100000000Y-110100000D03*
X100000000Y-98900000D03*
D25*
X92500000Y-107000000D03*
X92500000Y-104500000D03*
X92500000Y-102000000D03*
D26*
X105000000Y-114800000D03*
X205800000Y-61800000D03*
D21*
X107900000Y-81100000D03*
X107900000Y-78600000D03*
X107900000Y-76000000D03*
D28*
X96500000Y-87400000D03*
X89500000Y-87400000D03*
D29*
X98300000Y-89500000D03*
X99800000Y-85300000D03*
X91300000Y-89500000D03*
X94300000Y-89500000D03*
D28*
X89500000Y-85650000D03*
X96500000Y-85650000D03*
D29*
X91300000Y-83550000D03*
X94300000Y-83550000D03*
X98300000Y-83550000D03*
X99800000Y-87750000D03*
M02*
