G04 #@! TF.GenerationSoftware,KiCad,Pcbnew,(5.1.6)-1*
G04 #@! TF.CreationDate,2020-10-02T00:10:23+10:00*
G04 #@! TF.ProjectId,SofleKeyboard,536f666c-654b-4657-9962-6f6172642e6b,rev?*
G04 #@! TF.SameCoordinates,Original*
G04 #@! TF.FileFunction,Legend,Bot*
G04 #@! TF.FilePolarity,Positive*
%FSLAX46Y46*%
G04 Gerber Fmt 4.6, Leading zero omitted, Abs format (unit mm)*
G04 Created by KiCad (PCBNEW (5.1.6)-1) date 2020-10-02 00:10:23*
%MOMM*%
%LPD*%
G01*
G04 APERTURE LIST*
%ADD10C,0.150000*%
%ADD11C,0.200000*%
%ADD12C,0.300000*%
%ADD13C,3.500000*%
%ADD14C,0.500000*%
%ADD15C,0.400000*%
%ADD16C,1.000000*%
%ADD17C,3.000000*%
%ADD18C,0.800000*%
%ADD19C,0.120000*%
G04 APERTURE END LIST*
D10*
X184151904Y-96566666D02*
X184151904Y-96185714D01*
X183351904Y-96185714D01*
X184151904Y-96833333D02*
X183618571Y-96833333D01*
X183351904Y-96833333D02*
X183390000Y-96795238D01*
X183428095Y-96833333D01*
X183390000Y-96871428D01*
X183351904Y-96833333D01*
X183428095Y-96833333D01*
X183618571Y-97557142D02*
X184266190Y-97557142D01*
X184342380Y-97519047D01*
X184380476Y-97480952D01*
X184418571Y-97404761D01*
X184418571Y-97290476D01*
X184380476Y-97214285D01*
X184113809Y-97557142D02*
X184151904Y-97480952D01*
X184151904Y-97328571D01*
X184113809Y-97252380D01*
X184075714Y-97214285D01*
X183999523Y-97176190D01*
X183770952Y-97176190D01*
X183694761Y-97214285D01*
X183656666Y-97252380D01*
X183618571Y-97328571D01*
X183618571Y-97480952D01*
X183656666Y-97557142D01*
X184151904Y-97938095D02*
X183351904Y-97938095D01*
X184151904Y-98280952D02*
X183732857Y-98280952D01*
X183656666Y-98242857D01*
X183618571Y-98166666D01*
X183618571Y-98052380D01*
X183656666Y-97976190D01*
X183694761Y-97938095D01*
X183618571Y-98547619D02*
X183618571Y-98852380D01*
X183351904Y-98661904D02*
X184037619Y-98661904D01*
X184113809Y-98700000D01*
X184151904Y-98776190D01*
X184151904Y-98852380D01*
X184113809Y-99690476D02*
X184151904Y-99804761D01*
X184151904Y-99995238D01*
X184113809Y-100071428D01*
X184075714Y-100109523D01*
X183999523Y-100147619D01*
X183923333Y-100147619D01*
X183847142Y-100109523D01*
X183809047Y-100071428D01*
X183770952Y-99995238D01*
X183732857Y-99842857D01*
X183694761Y-99766666D01*
X183656666Y-99728571D01*
X183580476Y-99690476D01*
X183504285Y-99690476D01*
X183428095Y-99728571D01*
X183390000Y-99766666D01*
X183351904Y-99842857D01*
X183351904Y-100033333D01*
X183390000Y-100147619D01*
X184113809Y-100795238D02*
X184151904Y-100719047D01*
X184151904Y-100566666D01*
X184113809Y-100490476D01*
X184037619Y-100452380D01*
X183732857Y-100452380D01*
X183656666Y-100490476D01*
X183618571Y-100566666D01*
X183618571Y-100719047D01*
X183656666Y-100795238D01*
X183732857Y-100833333D01*
X183809047Y-100833333D01*
X183885238Y-100452380D01*
X184151904Y-101290476D02*
X184113809Y-101214285D01*
X184037619Y-101176190D01*
X183351904Y-101176190D01*
X187152857Y-99903333D02*
X187190952Y-100017619D01*
X187229047Y-100055714D01*
X187305238Y-100093809D01*
X187419523Y-100093809D01*
X187495714Y-100055714D01*
X187533809Y-100017619D01*
X187571904Y-99941428D01*
X187571904Y-99636666D01*
X186771904Y-99636666D01*
X186771904Y-99903333D01*
X186810000Y-99979523D01*
X186848095Y-100017619D01*
X186924285Y-100055714D01*
X187000476Y-100055714D01*
X187076666Y-100017619D01*
X187114761Y-99979523D01*
X187152857Y-99903333D01*
X187152857Y-99636666D01*
X187571904Y-100817619D02*
X187571904Y-100436666D01*
X186771904Y-100436666D01*
X186831904Y-96372380D02*
X187479523Y-96372380D01*
X187555714Y-96410476D01*
X187593809Y-96448571D01*
X187631904Y-96524761D01*
X187631904Y-96677142D01*
X187593809Y-96753333D01*
X187555714Y-96791428D01*
X187479523Y-96829523D01*
X186831904Y-96829523D01*
X187631904Y-97210476D02*
X186831904Y-97210476D01*
X187631904Y-97667619D01*
X186831904Y-97667619D01*
X187631904Y-98048571D02*
X186831904Y-98048571D01*
X186831904Y-98239047D01*
X186870000Y-98353333D01*
X186946190Y-98429523D01*
X187022380Y-98467619D01*
X187174761Y-98505714D01*
X187289047Y-98505714D01*
X187441428Y-98467619D01*
X187517619Y-98429523D01*
X187593809Y-98353333D01*
X187631904Y-98239047D01*
X187631904Y-98048571D01*
X183012380Y-120342857D02*
X182898095Y-120380952D01*
X182860000Y-120419047D01*
X182821904Y-120495238D01*
X182821904Y-120609523D01*
X182860000Y-120685714D01*
X182898095Y-120723809D01*
X182974285Y-120761904D01*
X183279047Y-120761904D01*
X183279047Y-119961904D01*
X183012380Y-119961904D01*
X182936190Y-120000000D01*
X182898095Y-120038095D01*
X182860000Y-120114285D01*
X182860000Y-120190476D01*
X182898095Y-120266666D01*
X182936190Y-120304761D01*
X183012380Y-120342857D01*
X183279047Y-120342857D01*
X182136190Y-120761904D02*
X182136190Y-120342857D01*
X182174285Y-120266666D01*
X182250476Y-120228571D01*
X182402857Y-120228571D01*
X182479047Y-120266666D01*
X182136190Y-120723809D02*
X182212380Y-120761904D01*
X182402857Y-120761904D01*
X182479047Y-120723809D01*
X182517142Y-120647619D01*
X182517142Y-120571428D01*
X182479047Y-120495238D01*
X182402857Y-120457142D01*
X182212380Y-120457142D01*
X182136190Y-120419047D01*
X181412380Y-120723809D02*
X181488571Y-120761904D01*
X181640952Y-120761904D01*
X181717142Y-120723809D01*
X181755238Y-120685714D01*
X181793333Y-120609523D01*
X181793333Y-120380952D01*
X181755238Y-120304761D01*
X181717142Y-120266666D01*
X181640952Y-120228571D01*
X181488571Y-120228571D01*
X181412380Y-120266666D01*
X181069523Y-120761904D02*
X181069523Y-119961904D01*
X180993333Y-120457142D02*
X180764761Y-120761904D01*
X180764761Y-120228571D02*
X181069523Y-120533333D01*
X180307619Y-120761904D02*
X180383809Y-120723809D01*
X180421904Y-120647619D01*
X180421904Y-119961904D01*
X180002857Y-120761904D02*
X180002857Y-120228571D01*
X180002857Y-119961904D02*
X180040952Y-120000000D01*
X180002857Y-120038095D01*
X179964761Y-120000000D01*
X180002857Y-119961904D01*
X180002857Y-120038095D01*
X179279047Y-120228571D02*
X179279047Y-120876190D01*
X179317142Y-120952380D01*
X179355238Y-120990476D01*
X179431428Y-121028571D01*
X179545714Y-121028571D01*
X179621904Y-120990476D01*
X179279047Y-120723809D02*
X179355238Y-120761904D01*
X179507619Y-120761904D01*
X179583809Y-120723809D01*
X179621904Y-120685714D01*
X179660000Y-120609523D01*
X179660000Y-120380952D01*
X179621904Y-120304761D01*
X179583809Y-120266666D01*
X179507619Y-120228571D01*
X179355238Y-120228571D01*
X179279047Y-120266666D01*
X178898095Y-120761904D02*
X178898095Y-119961904D01*
X178555238Y-120761904D02*
X178555238Y-120342857D01*
X178593333Y-120266666D01*
X178669523Y-120228571D01*
X178783809Y-120228571D01*
X178860000Y-120266666D01*
X178898095Y-120304761D01*
X178288571Y-120228571D02*
X177983809Y-120228571D01*
X178174285Y-119961904D02*
X178174285Y-120647619D01*
X178136190Y-120723809D01*
X178060000Y-120761904D01*
X177983809Y-120761904D01*
X177107619Y-120342857D02*
X176840952Y-120342857D01*
X176726666Y-120761904D02*
X177107619Y-120761904D01*
X177107619Y-119961904D01*
X176726666Y-119961904D01*
X176383809Y-120228571D02*
X176383809Y-120761904D01*
X176383809Y-120304761D02*
X176345714Y-120266666D01*
X176269523Y-120228571D01*
X176155238Y-120228571D01*
X176079047Y-120266666D01*
X176040952Y-120342857D01*
X176040952Y-120761904D01*
X182123333Y-121492857D02*
X181856666Y-121492857D01*
X181742380Y-121911904D02*
X182123333Y-121911904D01*
X182123333Y-121111904D01*
X181742380Y-121111904D01*
X181399523Y-121911904D02*
X181399523Y-121111904D01*
X180942380Y-121911904D01*
X180942380Y-121111904D01*
X180599523Y-121683333D02*
X180218571Y-121683333D01*
X180675714Y-121911904D02*
X180409047Y-121111904D01*
X180142380Y-121911904D01*
X114431904Y-83580952D02*
X113631904Y-83580952D01*
X114431904Y-83961904D02*
X113631904Y-83961904D01*
X114431904Y-84419047D01*
X113631904Y-84419047D01*
X114431904Y-84800000D02*
X113631904Y-84800000D01*
X113631904Y-84990476D01*
X113670000Y-85104761D01*
X113746190Y-85180952D01*
X113822380Y-85219047D01*
X113974761Y-85257142D01*
X114089047Y-85257142D01*
X114241428Y-85219047D01*
X114317619Y-85180952D01*
X114393809Y-85104761D01*
X114431904Y-84990476D01*
X114431904Y-84800000D01*
X114092857Y-81044285D02*
X114130952Y-81158571D01*
X114169047Y-81196666D01*
X114245238Y-81234761D01*
X114359523Y-81234761D01*
X114435714Y-81196666D01*
X114473809Y-81158571D01*
X114511904Y-81082380D01*
X114511904Y-80777619D01*
X113711904Y-80777619D01*
X113711904Y-81044285D01*
X113750000Y-81120476D01*
X113788095Y-81158571D01*
X113864285Y-81196666D01*
X113940476Y-81196666D01*
X114016666Y-81158571D01*
X114054761Y-81120476D01*
X114092857Y-81044285D01*
X114092857Y-80777619D01*
X114130952Y-81730000D02*
X114511904Y-81730000D01*
X113711904Y-81463333D02*
X114130952Y-81730000D01*
X113711904Y-81996666D01*
X114511904Y-82263333D02*
X113711904Y-82263333D01*
X113711904Y-82568095D01*
X113750000Y-82644285D01*
X113788095Y-82682380D01*
X113864285Y-82720476D01*
X113978571Y-82720476D01*
X114054761Y-82682380D01*
X114092857Y-82644285D01*
X114130952Y-82568095D01*
X114130952Y-82263333D01*
X111191904Y-81863333D02*
X110391904Y-81863333D01*
X110658571Y-82244285D02*
X111191904Y-82244285D01*
X110734761Y-82244285D02*
X110696666Y-82282380D01*
X110658571Y-82358571D01*
X110658571Y-82472857D01*
X110696666Y-82549047D01*
X110772857Y-82587142D01*
X111191904Y-82587142D01*
X111191904Y-83310952D02*
X110391904Y-83310952D01*
X111153809Y-83310952D02*
X111191904Y-83234761D01*
X111191904Y-83082380D01*
X111153809Y-83006190D01*
X111115714Y-82968095D01*
X111039523Y-82930000D01*
X110810952Y-82930000D01*
X110734761Y-82968095D01*
X110696666Y-83006190D01*
X110658571Y-83082380D01*
X110658571Y-83234761D01*
X110696666Y-83310952D01*
X111191904Y-84301428D02*
X110391904Y-84301428D01*
X110696666Y-84301428D02*
X110658571Y-84377619D01*
X110658571Y-84530000D01*
X110696666Y-84606190D01*
X110734761Y-84644285D01*
X110810952Y-84682380D01*
X111039523Y-84682380D01*
X111115714Y-84644285D01*
X111153809Y-84606190D01*
X111191904Y-84530000D01*
X111191904Y-84377619D01*
X111153809Y-84301428D01*
X110658571Y-84949047D02*
X111191904Y-85139523D01*
X110658571Y-85330000D02*
X111191904Y-85139523D01*
X111382380Y-85063333D01*
X111420476Y-85025238D01*
X111458571Y-84949047D01*
X110658571Y-85634761D02*
X111458571Y-85634761D01*
X110696666Y-85634761D02*
X110658571Y-85710952D01*
X110658571Y-85863333D01*
X110696666Y-85939523D01*
X110734761Y-85977619D01*
X110810952Y-86015714D01*
X111039523Y-86015714D01*
X111115714Y-85977619D01*
X111153809Y-85939523D01*
X111191904Y-85863333D01*
X111191904Y-85710952D01*
X111153809Y-85634761D01*
X111191904Y-86701428D02*
X110772857Y-86701428D01*
X110696666Y-86663333D01*
X110658571Y-86587142D01*
X110658571Y-86434761D01*
X110696666Y-86358571D01*
X111153809Y-86701428D02*
X111191904Y-86625238D01*
X111191904Y-86434761D01*
X111153809Y-86358571D01*
X111077619Y-86320476D01*
X111001428Y-86320476D01*
X110925238Y-86358571D01*
X110887142Y-86434761D01*
X110887142Y-86625238D01*
X110849047Y-86701428D01*
X111153809Y-87044285D02*
X111191904Y-87120476D01*
X111191904Y-87272857D01*
X111153809Y-87349047D01*
X111077619Y-87387142D01*
X111039523Y-87387142D01*
X110963333Y-87349047D01*
X110925238Y-87272857D01*
X110925238Y-87158571D01*
X110887142Y-87082380D01*
X110810952Y-87044285D01*
X110772857Y-87044285D01*
X110696666Y-87082380D01*
X110658571Y-87158571D01*
X110658571Y-87272857D01*
X110696666Y-87349047D01*
X111153809Y-87691904D02*
X111191904Y-87768095D01*
X111191904Y-87920476D01*
X111153809Y-87996666D01*
X111077619Y-88034761D01*
X111039523Y-88034761D01*
X110963333Y-87996666D01*
X110925238Y-87920476D01*
X110925238Y-87806190D01*
X110887142Y-87730000D01*
X110810952Y-87691904D01*
X110772857Y-87691904D01*
X110696666Y-87730000D01*
X110658571Y-87806190D01*
X110658571Y-87920476D01*
X110696666Y-87996666D01*
D11*
X223045572Y-45302021D02*
X223489666Y-44842019D01*
X223666404Y-45400351D02*
X223838482Y-44313894D01*
X223424594Y-44248340D01*
X223312927Y-44283688D01*
X223252997Y-44327230D01*
X223184873Y-44422508D01*
X223160290Y-44577716D01*
X223195638Y-44689382D01*
X223239180Y-44749312D01*
X223334458Y-44817437D01*
X223748346Y-44882990D01*
X222174734Y-44103416D02*
X222286401Y-44068068D01*
X222441609Y-44092651D01*
X222588623Y-44168969D01*
X222675706Y-44288830D01*
X222711054Y-44400496D01*
X222730013Y-44615634D01*
X222705431Y-44770843D01*
X222620918Y-44969593D01*
X222552794Y-45064871D01*
X222432933Y-45151954D01*
X222269531Y-45179108D01*
X222166059Y-45162719D01*
X222019045Y-45086401D01*
X221975503Y-45026471D01*
X222032862Y-44664318D01*
X222239806Y-44697095D01*
X221221474Y-44429739D02*
X221058071Y-44456893D01*
X220998141Y-44500434D01*
X220930017Y-44595712D01*
X220905434Y-44750921D01*
X220940782Y-44862587D01*
X220984324Y-44922517D01*
X221079601Y-44990642D01*
X221493490Y-45056195D01*
X221665568Y-43969738D01*
X221303415Y-43912379D01*
X221191749Y-43947726D01*
X221131819Y-43991268D01*
X221063694Y-44086546D01*
X221047306Y-44190018D01*
X221082654Y-44301684D01*
X221126196Y-44361615D01*
X221221474Y-44429739D01*
X221583626Y-44487098D01*
X219639186Y-44709468D02*
X219475784Y-44736622D01*
X219217103Y-44695651D01*
X219121826Y-44627526D01*
X219078284Y-44567596D01*
X219042936Y-44455930D01*
X219059324Y-44352458D01*
X219127449Y-44257180D01*
X219187379Y-44213638D01*
X219299045Y-44178290D01*
X219514184Y-44159331D01*
X219625850Y-44123983D01*
X219685780Y-44080441D01*
X219753905Y-43985163D01*
X219770293Y-43881691D01*
X219734945Y-43770025D01*
X219691404Y-43710095D01*
X219596126Y-43641970D01*
X219337445Y-43600999D01*
X219174043Y-43628153D01*
X218389327Y-44564544D02*
X218500993Y-44529196D01*
X218560923Y-44485654D01*
X218629048Y-44390376D01*
X218678213Y-44079960D01*
X218642865Y-43968294D01*
X218599323Y-43908363D01*
X218504045Y-43840239D01*
X218348837Y-43815656D01*
X218237171Y-43851004D01*
X218177240Y-43894546D01*
X218109116Y-43989824D01*
X218059951Y-44300240D01*
X218095299Y-44411907D01*
X218138840Y-44471837D01*
X218234118Y-44539961D01*
X218389327Y-44564544D01*
X217831476Y-43733715D02*
X217417588Y-43668161D01*
X217561550Y-44433437D02*
X217709045Y-43502188D01*
X217673697Y-43390522D01*
X217578419Y-43322397D01*
X217474947Y-43306009D01*
X216785509Y-44310524D02*
X216897175Y-44275176D01*
X216965300Y-44179898D01*
X217112795Y-43248649D01*
X215965926Y-44127681D02*
X216061204Y-44195805D01*
X216268148Y-44228582D01*
X216379815Y-44193235D01*
X216447939Y-44097957D01*
X216513493Y-43684068D01*
X216478145Y-43572402D01*
X216382867Y-43504277D01*
X216175923Y-43471501D01*
X216064256Y-43506848D01*
X215996132Y-43602126D01*
X215979744Y-43705598D01*
X216480716Y-43891012D01*
X214612595Y-43966368D02*
X214784672Y-42879911D01*
X213991762Y-43868038D02*
X214555717Y-43320953D01*
X214163840Y-42781581D02*
X214686342Y-43500744D01*
X213120443Y-43677001D02*
X213215721Y-43745125D01*
X213422665Y-43777902D01*
X213534332Y-43742554D01*
X213602456Y-43647276D01*
X213668009Y-43233388D01*
X213632662Y-43121722D01*
X213537384Y-43053597D01*
X213330440Y-43020820D01*
X213218773Y-43056168D01*
X213150649Y-43151446D01*
X213134261Y-43254918D01*
X213635233Y-43440332D01*
X212813079Y-42938879D02*
X212439680Y-43622212D01*
X212295718Y-42856937D02*
X212439680Y-43622212D01*
X212502181Y-43897281D01*
X212545723Y-43957211D01*
X212641001Y-44025336D01*
X211767111Y-43515688D02*
X211939189Y-42429231D01*
X211873636Y-42843119D02*
X211778358Y-42774995D01*
X211571414Y-42742218D01*
X211459747Y-42777566D01*
X211399817Y-42821108D01*
X211331693Y-42916386D01*
X211282528Y-43226802D01*
X211317875Y-43338468D01*
X211361417Y-43398398D01*
X211456695Y-43466523D01*
X211663639Y-43499300D01*
X211775306Y-43463952D01*
X210628918Y-43335416D02*
X210740584Y-43300068D01*
X210800515Y-43256526D01*
X210868639Y-43161248D01*
X210917804Y-42850832D01*
X210882457Y-42739166D01*
X210838915Y-42679236D01*
X210743637Y-42611111D01*
X210588429Y-42586529D01*
X210476762Y-42621876D01*
X210416832Y-42665418D01*
X210348708Y-42760696D01*
X210299543Y-43071112D01*
X210334890Y-43182779D01*
X210378432Y-43242709D01*
X210473710Y-43310833D01*
X210628918Y-43335416D01*
X209335517Y-43130561D02*
X209425653Y-42561465D01*
X209493777Y-42466187D01*
X209605444Y-42430839D01*
X209812388Y-42463616D01*
X209907666Y-42531740D01*
X209343711Y-43078825D02*
X209438989Y-43146950D01*
X209697669Y-43187921D01*
X209809335Y-43152573D01*
X209877460Y-43057295D01*
X209893848Y-42953823D01*
X209858501Y-42842157D01*
X209763223Y-42774032D01*
X209504542Y-42733061D01*
X209409264Y-42664937D01*
X208818156Y-43048619D02*
X208932875Y-42324315D01*
X208900098Y-42531259D02*
X208864750Y-42419593D01*
X208821209Y-42359662D01*
X208725931Y-42291538D01*
X208622459Y-42275149D01*
X207679963Y-42868347D02*
X207852041Y-41781890D01*
X207688157Y-42816611D02*
X207783435Y-42884736D01*
X207990379Y-42917512D01*
X208102046Y-42882165D01*
X208161976Y-42838623D01*
X208230100Y-42743345D01*
X208279265Y-42432929D01*
X208243918Y-42321262D01*
X208200376Y-42261332D01*
X208105098Y-42193208D01*
X207898154Y-42160431D01*
X207786487Y-42195779D01*
X206553016Y-41947382D02*
X206179617Y-42630716D01*
X206035656Y-41865440D01*
X204937952Y-42434055D02*
X205558785Y-42532386D01*
X205248368Y-42483221D02*
X205420446Y-41396763D01*
X205499336Y-41568360D01*
X205586420Y-41688220D01*
X205681698Y-41756345D01*
X203644551Y-42229201D02*
X203816629Y-41142744D01*
X203751075Y-41556632D02*
X203655797Y-41488508D01*
X203448853Y-41455731D01*
X203337187Y-41491079D01*
X203277256Y-41534620D01*
X203209132Y-41629898D01*
X203159967Y-41940315D01*
X203195315Y-42051981D01*
X203238856Y-42111911D01*
X203334134Y-42180036D01*
X203541079Y-42212812D01*
X203652745Y-42177465D01*
X202879756Y-41365595D02*
X202506357Y-42048929D01*
X202362396Y-41283653D02*
X202506357Y-42048929D01*
X202568859Y-42323997D01*
X202612400Y-42383928D01*
X202707678Y-42452052D01*
X200867673Y-40675675D02*
X200744761Y-41451716D01*
X200771914Y-41615118D01*
X200858998Y-41734979D01*
X201006012Y-41811297D01*
X201109484Y-41827686D01*
X200023027Y-41655608D02*
X200134693Y-41620260D01*
X200194623Y-41576718D01*
X200262748Y-41481440D01*
X200311913Y-41171024D01*
X200276565Y-41059358D01*
X200233023Y-40999427D01*
X200137745Y-40931303D01*
X199982537Y-40906720D01*
X199870871Y-40942068D01*
X199810941Y-40985610D01*
X199742816Y-41080888D01*
X199693651Y-41391304D01*
X199728999Y-41502970D01*
X199772541Y-41562901D01*
X199867819Y-41631025D01*
X200023027Y-41655608D01*
X199255180Y-41480959D02*
X199143514Y-41516307D01*
X198936570Y-41483530D01*
X198841292Y-41415405D01*
X198805944Y-41303739D01*
X198814138Y-41252003D01*
X198882263Y-41156725D01*
X198993929Y-41121377D01*
X199149137Y-41145960D01*
X199260803Y-41110612D01*
X199328928Y-41015334D01*
X199337122Y-40963598D01*
X199301774Y-40851932D01*
X199206496Y-40783808D01*
X199051288Y-40759225D01*
X198939622Y-40794573D01*
X197910043Y-41267910D02*
X198005321Y-41336034D01*
X198212265Y-41368811D01*
X198323931Y-41333464D01*
X198392055Y-41238186D01*
X198457609Y-40824297D01*
X198422261Y-40712631D01*
X198326983Y-40644506D01*
X198120039Y-40611730D01*
X198008373Y-40647077D01*
X197940248Y-40742355D01*
X197923860Y-40845827D01*
X198424832Y-41031241D01*
X197654415Y-40537982D02*
X197240526Y-40472428D01*
X197384488Y-41237704D02*
X197531983Y-40306455D01*
X197496636Y-40194789D01*
X197401358Y-40126664D01*
X197297886Y-40110276D01*
X196036779Y-40706045D02*
X195519419Y-40624103D01*
X196091086Y-41032850D02*
X195901012Y-39889033D01*
X195366782Y-40918131D01*
X194539005Y-40787024D02*
X194711083Y-39700567D01*
X194547199Y-40735288D02*
X194642477Y-40803412D01*
X194849421Y-40836189D01*
X194961087Y-40800841D01*
X195021018Y-40757300D01*
X195089142Y-40662022D01*
X195138307Y-40351605D01*
X195102960Y-40239939D01*
X195059418Y-40180009D01*
X194964140Y-40111884D01*
X194757196Y-40079108D01*
X194645529Y-40114455D01*
X193556020Y-40631334D02*
X193646156Y-40062238D01*
X193714280Y-39966960D01*
X193825947Y-39931612D01*
X194032891Y-39964389D01*
X194128169Y-40032513D01*
X193564214Y-40579598D02*
X193659492Y-40647723D01*
X193918172Y-40688694D01*
X194029838Y-40653346D01*
X194097963Y-40558068D01*
X194114351Y-40454596D01*
X194079004Y-40342930D01*
X193983726Y-40274805D01*
X193725045Y-40233834D01*
X193629767Y-40165710D01*
X193038659Y-40549393D02*
X193153378Y-39825088D01*
X193136989Y-39928560D02*
X193093448Y-39868630D01*
X192998170Y-39800505D01*
X192842961Y-39775923D01*
X192731295Y-39811270D01*
X192663171Y-39906548D01*
X192573035Y-40475645D01*
X192663171Y-39906548D02*
X192627823Y-39794882D01*
X192532545Y-39726758D01*
X192377337Y-39702175D01*
X192265671Y-39737523D01*
X192197546Y-39832801D01*
X192107410Y-40401897D01*
X191132619Y-40194472D02*
X191227897Y-40262596D01*
X191434841Y-40295373D01*
X191546508Y-40260025D01*
X191606438Y-40216483D01*
X191674562Y-40121205D01*
X191723728Y-39810789D01*
X191688380Y-39699123D01*
X191644838Y-39639192D01*
X191549560Y-39571068D01*
X191342616Y-39538291D01*
X191230950Y-39573639D01*
X190658801Y-40172460D02*
X190773519Y-39448155D01*
X190830879Y-39086003D02*
X190874420Y-39145933D01*
X190814490Y-39189475D01*
X190770948Y-39129545D01*
X190830879Y-39086003D01*
X190814490Y-39189475D01*
X190141440Y-40090518D02*
X190313518Y-39004061D01*
X190103521Y-39660241D02*
X189727552Y-40024965D01*
X189842270Y-39300660D02*
X190190605Y-39780102D01*
X187554637Y-39680809D02*
X187606373Y-39689003D01*
X187718040Y-39653655D01*
X187897830Y-39523030D01*
X188205676Y-39253584D01*
X188333730Y-39114765D01*
X188410049Y-38967751D01*
X188426437Y-38864278D01*
X188391090Y-38752612D01*
X188295812Y-38684488D01*
X188244076Y-38676294D01*
X188132409Y-38711641D01*
X188064285Y-38806919D01*
X188056091Y-38858655D01*
X188091438Y-38970321D01*
X188134980Y-39030252D01*
X188412620Y-39286361D01*
X188456162Y-39346291D01*
X188491510Y-39457958D01*
X188466927Y-39613166D01*
X188398803Y-39708444D01*
X188338872Y-39751986D01*
X188227206Y-39787333D01*
X188071998Y-39762751D01*
X187976720Y-39694626D01*
X187933178Y-39634696D01*
X187810747Y-39403169D01*
X187783593Y-39239767D01*
X187799981Y-39136295D01*
X186261236Y-39475954D02*
X186433314Y-38389497D01*
X186174633Y-38348526D01*
X186011231Y-38375680D01*
X185891371Y-38462763D01*
X185823246Y-38558041D01*
X185738733Y-38756791D01*
X185714151Y-38911999D01*
X185733110Y-39127138D01*
X185768458Y-39238804D01*
X185855542Y-39358665D01*
X186002556Y-39434983D01*
X186261236Y-39475954D01*
X185264915Y-38734780D02*
X184902762Y-38677420D01*
X184657418Y-39221934D02*
X185174779Y-39303876D01*
X185346857Y-38217419D01*
X184829496Y-38135477D01*
X184519080Y-38086312D02*
X183984849Y-39115410D01*
X183794775Y-37971593D01*
D12*
X115985800Y-123475000D02*
X113535800Y-123475000D01*
X115985800Y-122025000D02*
X115985800Y-123475000D01*
X113535800Y-123475000D02*
X113535800Y-122025000D01*
X113535800Y-122025000D02*
X115955800Y-122025000D01*
D10*
X221370000Y-57600000D02*
X221370000Y-55360000D01*
X211100000Y-60500000D02*
X219500001Y-60500000D01*
D13*
X213100000Y-58700000D02*
X219800000Y-58700000D01*
D10*
X211100000Y-60150000D02*
X211100000Y-60500000D01*
D14*
X211400000Y-57200000D02*
X212800000Y-57200000D01*
D10*
X211100000Y-56900000D02*
X211100000Y-57900000D01*
D12*
X221500000Y-57700001D02*
X221500000Y-58600000D01*
D10*
X211320000Y-57900000D02*
X211320000Y-60150000D01*
X221600000Y-55000000D02*
X221600000Y-55360000D01*
D15*
X211300000Y-60300000D02*
X212700000Y-60300000D01*
D10*
X221400000Y-55360000D02*
X221600000Y-55360000D01*
X221600000Y-55000000D02*
X218320000Y-55000000D01*
X211100000Y-57900000D02*
X211300000Y-57900000D01*
X221600000Y-58600000D02*
X221600000Y-57600000D01*
X211300000Y-60150000D02*
X211100000Y-60150000D01*
X221600000Y-57600000D02*
X221400000Y-57600000D01*
X216100000Y-56900000D02*
X211100000Y-56900000D01*
D14*
X221400000Y-55200000D02*
X218700000Y-55200000D01*
D16*
X211800000Y-59900000D02*
X211800000Y-57400000D01*
D15*
X211300000Y-57800000D02*
X211300000Y-57100000D01*
D17*
X219870000Y-59000000D02*
X219870000Y-56760000D01*
D18*
X221000000Y-55500000D02*
X221000000Y-57299999D01*
D12*
X217070600Y-48550000D02*
X219120600Y-48550000D01*
X217070600Y-50000000D02*
X217070600Y-48550000D01*
X219120600Y-50000000D02*
X217070600Y-50000000D01*
X219120600Y-48550000D02*
X219120600Y-50000000D01*
D16*
X218716318Y-55421471D02*
G75*
G02*
X216500000Y-57300000I-2151318J291471D01*
G01*
D10*
X221600000Y-58599999D02*
G75*
G02*
X219500001Y-60500000I-2000000J99999D01*
G01*
X218316318Y-55021471D02*
G75*
G02*
X216100000Y-56900000I-2151318J291471D01*
G01*
X202370000Y-113200000D02*
X202370000Y-110960000D01*
X192100000Y-116100000D02*
X200500001Y-116100000D01*
D13*
X194100000Y-114300000D02*
X200800000Y-114300000D01*
D10*
X192100000Y-115750000D02*
X192100000Y-116100000D01*
D14*
X192400000Y-112800000D02*
X193800000Y-112800000D01*
D10*
X192100000Y-112500000D02*
X192100000Y-113500000D01*
D12*
X202500000Y-113300001D02*
X202500000Y-114200000D01*
D10*
X192320000Y-113500000D02*
X192320000Y-115750000D01*
X202600000Y-110600000D02*
X202600000Y-110960000D01*
D15*
X192300000Y-115900000D02*
X193700000Y-115900000D01*
D10*
X202400000Y-110960000D02*
X202600000Y-110960000D01*
X202600000Y-110600000D02*
X199320000Y-110600000D01*
X192100000Y-113500000D02*
X192300000Y-113500000D01*
X202600000Y-114200000D02*
X202600000Y-113200000D01*
X192300000Y-115750000D02*
X192100000Y-115750000D01*
X202600000Y-113200000D02*
X202400000Y-113200000D01*
X197100000Y-112500000D02*
X192100000Y-112500000D01*
D14*
X202400000Y-110800000D02*
X199700000Y-110800000D01*
D16*
X192800000Y-115500000D02*
X192800000Y-113000000D01*
D15*
X192300000Y-113400000D02*
X192300000Y-112700000D01*
D17*
X200870000Y-114600000D02*
X200870000Y-112360000D01*
D18*
X202000000Y-111100000D02*
X202000000Y-112899999D01*
D12*
X198070600Y-104150000D02*
X200120600Y-104150000D01*
X198070600Y-105600000D02*
X198070600Y-104150000D01*
X200120600Y-105600000D02*
X198070600Y-105600000D01*
X200120600Y-104150000D02*
X200120600Y-105600000D01*
D16*
X199716318Y-111021471D02*
G75*
G02*
X197500000Y-112900000I-2151318J291471D01*
G01*
D10*
X202600000Y-114199999D02*
G75*
G02*
X200500001Y-116100000I-2000000J99999D01*
G01*
X199316318Y-110621471D02*
G75*
G02*
X197100000Y-112500000I-2151318J291471D01*
G01*
X221370000Y-76500000D02*
X221370000Y-74260000D01*
X211100000Y-79400000D02*
X219500001Y-79400000D01*
D13*
X213100000Y-77600000D02*
X219800000Y-77600000D01*
D10*
X211100000Y-79050000D02*
X211100000Y-79400000D01*
D14*
X211400000Y-76100000D02*
X212800000Y-76100000D01*
D10*
X211100000Y-75800000D02*
X211100000Y-76800000D01*
D12*
X221500000Y-76600001D02*
X221500000Y-77500000D01*
D10*
X211320000Y-76800000D02*
X211320000Y-79050000D01*
X221600000Y-73900000D02*
X221600000Y-74260000D01*
D15*
X211300000Y-79200000D02*
X212700000Y-79200000D01*
D10*
X221400000Y-74260000D02*
X221600000Y-74260000D01*
X221600000Y-73900000D02*
X218320000Y-73900000D01*
X211100000Y-76800000D02*
X211300000Y-76800000D01*
X221600000Y-77500000D02*
X221600000Y-76500000D01*
X211300000Y-79050000D02*
X211100000Y-79050000D01*
X221600000Y-76500000D02*
X221400000Y-76500000D01*
X216100000Y-75800000D02*
X211100000Y-75800000D01*
D14*
X221400000Y-74100000D02*
X218700000Y-74100000D01*
D16*
X211800000Y-78800000D02*
X211800000Y-76300000D01*
D15*
X211300000Y-76700000D02*
X211300000Y-76000000D01*
D17*
X219870000Y-77900000D02*
X219870000Y-75660000D01*
D18*
X221000000Y-74400000D02*
X221000000Y-76199999D01*
D12*
X217070600Y-67450000D02*
X219120600Y-67450000D01*
X217070600Y-68900000D02*
X217070600Y-67450000D01*
X219120600Y-68900000D02*
X217070600Y-68900000D01*
X219120600Y-67450000D02*
X219120600Y-68900000D01*
D16*
X218716318Y-74321471D02*
G75*
G02*
X216500000Y-76200000I-2151318J291471D01*
G01*
D10*
X221600000Y-77499999D02*
G75*
G02*
X219500001Y-79400000I-2000000J99999D01*
G01*
X218316318Y-73921471D02*
G75*
G02*
X216100000Y-75800000I-2151318J291471D01*
G01*
X202370000Y-75000000D02*
X202370000Y-72760000D01*
X192100000Y-77900000D02*
X200500001Y-77900000D01*
D13*
X194100000Y-76100000D02*
X200800000Y-76100000D01*
D10*
X192100000Y-77550000D02*
X192100000Y-77900000D01*
D14*
X192400000Y-74600000D02*
X193800000Y-74600000D01*
D10*
X192100000Y-74300000D02*
X192100000Y-75300000D01*
D12*
X202500000Y-75100001D02*
X202500000Y-76000000D01*
D10*
X192320000Y-75300000D02*
X192320000Y-77550000D01*
X202600000Y-72400000D02*
X202600000Y-72760000D01*
D15*
X192300000Y-77700000D02*
X193700000Y-77700000D01*
D10*
X202400000Y-72760000D02*
X202600000Y-72760000D01*
X202600000Y-72400000D02*
X199320000Y-72400000D01*
X192100000Y-75300000D02*
X192300000Y-75300000D01*
X202600000Y-76000000D02*
X202600000Y-75000000D01*
X192300000Y-77550000D02*
X192100000Y-77550000D01*
X202600000Y-75000000D02*
X202400000Y-75000000D01*
X197100000Y-74300000D02*
X192100000Y-74300000D01*
D14*
X202400000Y-72600000D02*
X199700000Y-72600000D01*
D16*
X192800000Y-77300000D02*
X192800000Y-74800000D01*
D15*
X192300000Y-75200000D02*
X192300000Y-74500000D01*
D17*
X200870000Y-76400000D02*
X200870000Y-74160000D01*
D18*
X202000000Y-72900000D02*
X202000000Y-74699999D01*
D12*
X198070600Y-65950000D02*
X200120600Y-65950000D01*
X198070600Y-67400000D02*
X198070600Y-65950000D01*
X200120600Y-67400000D02*
X198070600Y-67400000D01*
X200120600Y-65950000D02*
X200120600Y-67400000D01*
D16*
X199716318Y-72821471D02*
G75*
G02*
X197500000Y-74700000I-2151318J291471D01*
G01*
D10*
X202600000Y-75999999D02*
G75*
G02*
X200500001Y-77900000I-2000000J99999D01*
G01*
X199316318Y-72421471D02*
G75*
G02*
X197100000Y-74300000I-2151318J291471D01*
G01*
X202370000Y-94200000D02*
X202370000Y-91960000D01*
X192100000Y-97100000D02*
X200500001Y-97100000D01*
D13*
X194100000Y-95300000D02*
X200800000Y-95300000D01*
D10*
X192100000Y-96750000D02*
X192100000Y-97100000D01*
D14*
X192400000Y-93800000D02*
X193800000Y-93800000D01*
D10*
X192100000Y-93500000D02*
X192100000Y-94500000D01*
D12*
X202500000Y-94300001D02*
X202500000Y-95200000D01*
D10*
X192320000Y-94500000D02*
X192320000Y-96750000D01*
X202600000Y-91600000D02*
X202600000Y-91960000D01*
D15*
X192300000Y-96900000D02*
X193700000Y-96900000D01*
D10*
X202400000Y-91960000D02*
X202600000Y-91960000D01*
X202600000Y-91600000D02*
X199320000Y-91600000D01*
X192100000Y-94500000D02*
X192300000Y-94500000D01*
X202600000Y-95200000D02*
X202600000Y-94200000D01*
X192300000Y-96750000D02*
X192100000Y-96750000D01*
X202600000Y-94200000D02*
X202400000Y-94200000D01*
X197100000Y-93500000D02*
X192100000Y-93500000D01*
D14*
X202400000Y-91800000D02*
X199700000Y-91800000D01*
D16*
X192800000Y-96500000D02*
X192800000Y-94000000D01*
D15*
X192300000Y-94400000D02*
X192300000Y-93700000D01*
D17*
X200870000Y-95600000D02*
X200870000Y-93360000D01*
D18*
X202000000Y-92100000D02*
X202000000Y-93899999D01*
D12*
X198070600Y-85150000D02*
X200120600Y-85150000D01*
X198070600Y-86600000D02*
X198070600Y-85150000D01*
X200120600Y-86600000D02*
X198070600Y-86600000D01*
X200120600Y-85150000D02*
X200120600Y-86600000D01*
D16*
X199716318Y-92021471D02*
G75*
G02*
X197500000Y-93900000I-2151318J291471D01*
G01*
D10*
X202600000Y-95199999D02*
G75*
G02*
X200500001Y-97100000I-2000000J99999D01*
G01*
X199316318Y-91621471D02*
G75*
G02*
X197100000Y-93500000I-2151318J291471D01*
G01*
X145170000Y-51300000D02*
X145170000Y-49060000D01*
X134900000Y-54200000D02*
X143300001Y-54200000D01*
D13*
X136900000Y-52400000D02*
X143600000Y-52400000D01*
D10*
X134900000Y-53850000D02*
X134900000Y-54200000D01*
D14*
X135200000Y-50900000D02*
X136600000Y-50900000D01*
D10*
X134900000Y-50600000D02*
X134900000Y-51600000D01*
D12*
X145300000Y-51400001D02*
X145300000Y-52300000D01*
D10*
X135120000Y-51600000D02*
X135120000Y-53850000D01*
X145400000Y-48700000D02*
X145400000Y-49060000D01*
D15*
X135100000Y-54000000D02*
X136500000Y-54000000D01*
D10*
X145200000Y-49060000D02*
X145400000Y-49060000D01*
X145400000Y-48700000D02*
X142120000Y-48700000D01*
X134900000Y-51600000D02*
X135100000Y-51600000D01*
X145400000Y-52300000D02*
X145400000Y-51300000D01*
X135100000Y-53850000D02*
X134900000Y-53850000D01*
X145400000Y-51300000D02*
X145200000Y-51300000D01*
X139900000Y-50600000D02*
X134900000Y-50600000D01*
D14*
X145200000Y-48900000D02*
X142500000Y-48900000D01*
D16*
X135600000Y-53600000D02*
X135600000Y-51100000D01*
D15*
X135100000Y-51500000D02*
X135100000Y-50800000D01*
D17*
X143670000Y-52700000D02*
X143670000Y-50460000D01*
D18*
X144800000Y-49200000D02*
X144800000Y-50999999D01*
D12*
X140870600Y-42250000D02*
X142920600Y-42250000D01*
X140870600Y-43700000D02*
X140870600Y-42250000D01*
X142920600Y-43700000D02*
X140870600Y-43700000D01*
X142920600Y-42250000D02*
X142920600Y-43700000D01*
D16*
X142516318Y-49121471D02*
G75*
G02*
X140300000Y-51000000I-2151318J291471D01*
G01*
D10*
X145400000Y-52299999D02*
G75*
G02*
X143300001Y-54200000I-2000000J99999D01*
G01*
X142116318Y-48721471D02*
G75*
G02*
X139900000Y-50600000I-2151318J291471D01*
G01*
X142475000Y-118500000D02*
X142475000Y-117000000D01*
X137075000Y-118500000D02*
X142475000Y-118500000D01*
X137075000Y-117000000D02*
X137075000Y-118500000D01*
X142475000Y-117000000D02*
X137075000Y-117000000D01*
X140275000Y-118250000D02*
X139375000Y-117750000D01*
X140275000Y-117250000D02*
X140275000Y-118250000D01*
X139375000Y-117750000D02*
X140275000Y-117250000D01*
X139275000Y-117250000D02*
X139275000Y-118250000D01*
X142475000Y-120500000D02*
X142475000Y-119000000D01*
X137075000Y-120500000D02*
X142475000Y-120500000D01*
X137075000Y-119000000D02*
X137075000Y-120500000D01*
X142475000Y-119000000D02*
X137075000Y-119000000D01*
X140275000Y-120250000D02*
X139375000Y-119750000D01*
X140275000Y-119250000D02*
X140275000Y-120250000D01*
X139375000Y-119750000D02*
X140275000Y-119250000D01*
X139275000Y-119250000D02*
X139275000Y-120250000D01*
X142475000Y-122500000D02*
X142475000Y-121000000D01*
X137075000Y-122500000D02*
X142475000Y-122500000D01*
X137075000Y-121000000D02*
X137075000Y-122500000D01*
X142475000Y-121000000D02*
X137075000Y-121000000D01*
X140275000Y-122250000D02*
X139375000Y-121750000D01*
X140275000Y-121250000D02*
X140275000Y-122250000D01*
X139375000Y-121750000D02*
X140275000Y-121250000D01*
X139275000Y-121250000D02*
X139275000Y-122250000D01*
X120200000Y-118750000D02*
X120200000Y-117250000D01*
X114800000Y-118750000D02*
X120200000Y-118750000D01*
X114800000Y-117250000D02*
X114800000Y-118750000D01*
X120200000Y-117250000D02*
X114800000Y-117250000D01*
X118000000Y-118500000D02*
X117100000Y-118000000D01*
X118000000Y-117500000D02*
X118000000Y-118500000D01*
X117100000Y-118000000D02*
X118000000Y-117500000D01*
X117000000Y-117500000D02*
X117000000Y-118500000D01*
X110500481Y-122013269D02*
X111799519Y-121263269D01*
X107800481Y-117336731D02*
X110500481Y-122013269D01*
X109099519Y-116586731D02*
X107800481Y-117336731D01*
X111799519Y-121263269D02*
X109099519Y-116586731D01*
X109616987Y-119983013D02*
X109600000Y-118953590D01*
X110483013Y-119483013D02*
X109616987Y-119983013D01*
X109600000Y-118953590D02*
X110483013Y-119483013D01*
X109983013Y-118616987D02*
X109116987Y-119116987D01*
X109700000Y-97750000D02*
X109700000Y-96250000D01*
X104300000Y-97750000D02*
X109700000Y-97750000D01*
X104300000Y-96250000D02*
X104300000Y-97750000D01*
X109700000Y-96250000D02*
X104300000Y-96250000D01*
X107500000Y-97500000D02*
X106600000Y-97000000D01*
X107500000Y-96500000D02*
X107500000Y-97500000D01*
X106600000Y-97000000D02*
X107500000Y-96500000D01*
X106500000Y-96500000D02*
X106500000Y-97500000D01*
X207000000Y-109450000D02*
X208500000Y-109450000D01*
X207000000Y-104050000D02*
X207000000Y-109450000D01*
X208500000Y-104050000D02*
X207000000Y-104050000D01*
X208500000Y-109450000D02*
X208500000Y-104050000D01*
X207250000Y-107250000D02*
X207750000Y-106350000D01*
X208250000Y-107250000D02*
X207250000Y-107250000D01*
X207750000Y-106350000D02*
X208250000Y-107250000D01*
X208250000Y-106250000D02*
X207250000Y-106250000D01*
X187750000Y-109450000D02*
X189250000Y-109450000D01*
X187750000Y-104050000D02*
X187750000Y-109450000D01*
X189250000Y-104050000D02*
X187750000Y-104050000D01*
X189250000Y-109450000D02*
X189250000Y-104050000D01*
X188000000Y-107250000D02*
X188500000Y-106350000D01*
X189000000Y-107250000D02*
X188000000Y-107250000D01*
X188500000Y-106350000D02*
X189000000Y-107250000D01*
X189000000Y-106250000D02*
X188000000Y-106250000D01*
X168500000Y-104950000D02*
X170000000Y-104950000D01*
X168500000Y-99550000D02*
X168500000Y-104950000D01*
X170000000Y-99550000D02*
X168500000Y-99550000D01*
X170000000Y-104950000D02*
X170000000Y-99550000D01*
X168750000Y-102750000D02*
X169250000Y-101850000D01*
X169750000Y-102750000D02*
X168750000Y-102750000D01*
X169250000Y-101850000D02*
X169750000Y-102750000D01*
X169750000Y-101750000D02*
X168750000Y-101750000D01*
X149250000Y-102475000D02*
X150750000Y-102475000D01*
X149250000Y-97075000D02*
X149250000Y-102475000D01*
X150750000Y-97075000D02*
X149250000Y-97075000D01*
X150750000Y-102475000D02*
X150750000Y-97075000D01*
X149500000Y-100275000D02*
X150000000Y-99375000D01*
X150500000Y-100275000D02*
X149500000Y-100275000D01*
X150000000Y-99375000D02*
X150500000Y-100275000D01*
X150500000Y-99275000D02*
X149500000Y-99275000D01*
X130250000Y-105975000D02*
X131750000Y-105975000D01*
X130250000Y-100575000D02*
X130250000Y-105975000D01*
X131750000Y-100575000D02*
X130250000Y-100575000D01*
X131750000Y-105975000D02*
X131750000Y-100575000D01*
X130500000Y-103775000D02*
X131000000Y-102875000D01*
X131500000Y-103775000D02*
X130500000Y-103775000D01*
X131000000Y-102875000D02*
X131500000Y-103775000D01*
X131500000Y-102775000D02*
X130500000Y-102775000D01*
X111250000Y-105450000D02*
X112750000Y-105450000D01*
X111250000Y-100050000D02*
X111250000Y-105450000D01*
X112750000Y-100050000D02*
X111250000Y-100050000D01*
X112750000Y-105450000D02*
X112750000Y-100050000D01*
X111500000Y-103250000D02*
X112000000Y-102350000D01*
X112500000Y-103250000D02*
X111500000Y-103250000D01*
X112000000Y-102350000D02*
X112500000Y-103250000D01*
X112500000Y-102250000D02*
X111500000Y-102250000D01*
X207000000Y-90475000D02*
X208500000Y-90475000D01*
X207000000Y-85075000D02*
X207000000Y-90475000D01*
X208500000Y-85075000D02*
X207000000Y-85075000D01*
X208500000Y-90475000D02*
X208500000Y-85075000D01*
X207250000Y-88275000D02*
X207750000Y-87375000D01*
X208250000Y-88275000D02*
X207250000Y-88275000D01*
X207750000Y-87375000D02*
X208250000Y-88275000D01*
X208250000Y-87275000D02*
X207250000Y-87275000D01*
X187750000Y-91475000D02*
X189250000Y-91475000D01*
X187750000Y-86075000D02*
X187750000Y-91475000D01*
X189250000Y-86075000D02*
X187750000Y-86075000D01*
X189250000Y-91475000D02*
X189250000Y-86075000D01*
X188000000Y-89275000D02*
X188500000Y-88375000D01*
X189000000Y-89275000D02*
X188000000Y-89275000D01*
X188500000Y-88375000D02*
X189000000Y-89275000D01*
X189000000Y-88275000D02*
X188000000Y-88275000D01*
X168975000Y-86225000D02*
X170475000Y-86225000D01*
X168975000Y-80825000D02*
X168975000Y-86225000D01*
X170475000Y-80825000D02*
X168975000Y-80825000D01*
X170475000Y-86225000D02*
X170475000Y-80825000D01*
X169225000Y-84025000D02*
X169725000Y-83125000D01*
X170225000Y-84025000D02*
X169225000Y-84025000D01*
X169725000Y-83125000D02*
X170225000Y-84025000D01*
X170225000Y-83025000D02*
X169225000Y-83025000D01*
X149000000Y-85475000D02*
X150500000Y-85475000D01*
X149000000Y-80075000D02*
X149000000Y-85475000D01*
X150500000Y-80075000D02*
X149000000Y-80075000D01*
X150500000Y-85475000D02*
X150500000Y-80075000D01*
X149250000Y-83275000D02*
X149750000Y-82375000D01*
X150250000Y-83275000D02*
X149250000Y-83275000D01*
X149750000Y-82375000D02*
X150250000Y-83275000D01*
X150250000Y-82275000D02*
X149250000Y-82275000D01*
X130500000Y-86475000D02*
X132000000Y-86475000D01*
X130500000Y-81075000D02*
X130500000Y-86475000D01*
X132000000Y-81075000D02*
X130500000Y-81075000D01*
X132000000Y-86475000D02*
X132000000Y-81075000D01*
X130750000Y-84275000D02*
X131250000Y-83375000D01*
X131750000Y-84275000D02*
X130750000Y-84275000D01*
X131250000Y-83375000D02*
X131750000Y-84275000D01*
X131750000Y-83275000D02*
X130750000Y-83275000D01*
X127750000Y-86475000D02*
X129250000Y-86475000D01*
X127750000Y-81075000D02*
X127750000Y-86475000D01*
X129250000Y-81075000D02*
X127750000Y-81075000D01*
X129250000Y-86475000D02*
X129250000Y-81075000D01*
X128000000Y-84275000D02*
X128500000Y-83375000D01*
X129000000Y-84275000D02*
X128000000Y-84275000D01*
X128500000Y-83375000D02*
X129000000Y-84275000D01*
X129000000Y-83275000D02*
X128000000Y-83275000D01*
X207000000Y-71475000D02*
X208500000Y-71475000D01*
X207000000Y-66075000D02*
X207000000Y-71475000D01*
X208500000Y-66075000D02*
X207000000Y-66075000D01*
X208500000Y-71475000D02*
X208500000Y-66075000D01*
X207250000Y-69275000D02*
X207750000Y-68375000D01*
X208250000Y-69275000D02*
X207250000Y-69275000D01*
X207750000Y-68375000D02*
X208250000Y-69275000D01*
X208250000Y-68275000D02*
X207250000Y-68275000D01*
X187500000Y-69475000D02*
X189000000Y-69475000D01*
X187500000Y-64075000D02*
X187500000Y-69475000D01*
X189000000Y-64075000D02*
X187500000Y-64075000D01*
X189000000Y-69475000D02*
X189000000Y-64075000D01*
X187750000Y-67275000D02*
X188250000Y-66375000D01*
X188750000Y-67275000D02*
X187750000Y-67275000D01*
X188250000Y-66375000D02*
X188750000Y-67275000D01*
X188750000Y-66275000D02*
X187750000Y-66275000D01*
X168750000Y-66450000D02*
X170250000Y-66450000D01*
X168750000Y-61050000D02*
X168750000Y-66450000D01*
X170250000Y-61050000D02*
X168750000Y-61050000D01*
X170250000Y-66450000D02*
X170250000Y-61050000D01*
X169000000Y-64250000D02*
X169500000Y-63350000D01*
X170000000Y-64250000D02*
X169000000Y-64250000D01*
X169500000Y-63350000D02*
X170000000Y-64250000D01*
X170000000Y-63250000D02*
X169000000Y-63250000D01*
X149500000Y-64975000D02*
X151000000Y-64975000D01*
X149500000Y-59575000D02*
X149500000Y-64975000D01*
X151000000Y-59575000D02*
X149500000Y-59575000D01*
X151000000Y-64975000D02*
X151000000Y-59575000D01*
X149750000Y-62775000D02*
X150250000Y-61875000D01*
X150750000Y-62775000D02*
X149750000Y-62775000D01*
X150250000Y-61875000D02*
X150750000Y-62775000D01*
X150750000Y-61775000D02*
X149750000Y-61775000D01*
X131075000Y-65650000D02*
X131075000Y-64150000D01*
X125675000Y-65650000D02*
X131075000Y-65650000D01*
X125675000Y-64150000D02*
X125675000Y-65650000D01*
X131075000Y-64150000D02*
X125675000Y-64150000D01*
X128875000Y-65400000D02*
X127975000Y-64900000D01*
X128875000Y-64400000D02*
X128875000Y-65400000D01*
X127975000Y-64900000D02*
X128875000Y-64400000D01*
X127875000Y-64400000D02*
X127875000Y-65400000D01*
X131025000Y-67500000D02*
X131025000Y-66000000D01*
X125625000Y-67500000D02*
X131025000Y-67500000D01*
X125625000Y-66000000D02*
X125625000Y-67500000D01*
X131025000Y-66000000D02*
X125625000Y-66000000D01*
X128825000Y-67250000D02*
X127925000Y-66750000D01*
X128825000Y-66250000D02*
X128825000Y-67250000D01*
X127925000Y-66750000D02*
X128825000Y-66250000D01*
X127825000Y-66250000D02*
X127825000Y-67250000D01*
X207000000Y-54225000D02*
X208500000Y-54225000D01*
X207000000Y-48825000D02*
X207000000Y-54225000D01*
X208500000Y-48825000D02*
X207000000Y-48825000D01*
X208500000Y-54225000D02*
X208500000Y-48825000D01*
X207250000Y-52025000D02*
X207750000Y-51125000D01*
X208250000Y-52025000D02*
X207250000Y-52025000D01*
X207750000Y-51125000D02*
X208250000Y-52025000D01*
X208250000Y-51025000D02*
X207250000Y-51025000D01*
X187250000Y-52950000D02*
X188750000Y-52950000D01*
X187250000Y-47550000D02*
X187250000Y-52950000D01*
X188750000Y-47550000D02*
X187250000Y-47550000D01*
X188750000Y-52950000D02*
X188750000Y-47550000D01*
X187500000Y-50750000D02*
X188000000Y-49850000D01*
X188500000Y-50750000D02*
X187500000Y-50750000D01*
X188000000Y-49850000D02*
X188500000Y-50750000D01*
X188500000Y-49750000D02*
X187500000Y-49750000D01*
X168500000Y-48225000D02*
X170000000Y-48225000D01*
X168500000Y-42825000D02*
X168500000Y-48225000D01*
X170000000Y-42825000D02*
X168500000Y-42825000D01*
X170000000Y-48225000D02*
X170000000Y-42825000D01*
X168750000Y-46025000D02*
X169250000Y-45125000D01*
X169750000Y-46025000D02*
X168750000Y-46025000D01*
X169250000Y-45125000D02*
X169750000Y-46025000D01*
X169750000Y-45025000D02*
X168750000Y-45025000D01*
X149750000Y-46950000D02*
X151250000Y-46950000D01*
X149750000Y-41550000D02*
X149750000Y-46950000D01*
X151250000Y-41550000D02*
X149750000Y-41550000D01*
X151250000Y-46950000D02*
X151250000Y-41550000D01*
X150000000Y-44750000D02*
X150500000Y-43850000D01*
X151000000Y-44750000D02*
X150000000Y-44750000D01*
X150500000Y-43850000D02*
X151000000Y-44750000D01*
X151000000Y-43750000D02*
X150000000Y-43750000D01*
X130250000Y-48450000D02*
X131750000Y-48450000D01*
X130250000Y-43050000D02*
X130250000Y-48450000D01*
X131750000Y-43050000D02*
X130250000Y-43050000D01*
X131750000Y-48450000D02*
X131750000Y-43050000D01*
X130500000Y-46250000D02*
X131000000Y-45350000D01*
X131500000Y-46250000D02*
X130500000Y-46250000D01*
X131000000Y-45350000D02*
X131500000Y-46250000D01*
X131500000Y-45250000D02*
X130500000Y-45250000D01*
X128000000Y-48475000D02*
X129500000Y-48475000D01*
X128000000Y-43075000D02*
X128000000Y-48475000D01*
X129500000Y-43075000D02*
X128000000Y-43075000D01*
X129500000Y-48475000D02*
X129500000Y-43075000D01*
X128250000Y-46275000D02*
X128750000Y-45375000D01*
X129250000Y-46275000D02*
X128250000Y-46275000D01*
X128750000Y-45375000D02*
X129250000Y-46275000D01*
X129250000Y-45275000D02*
X128250000Y-45275000D01*
X192870000Y-131600000D02*
X192870000Y-129360000D01*
X182600000Y-134500000D02*
X191000001Y-134500000D01*
D13*
X184600000Y-132700000D02*
X191300000Y-132700000D01*
D10*
X182600000Y-134150000D02*
X182600000Y-134500000D01*
D14*
X182900000Y-131200000D02*
X184300000Y-131200000D01*
D10*
X182600000Y-130900000D02*
X182600000Y-131900000D01*
D12*
X193000000Y-131700001D02*
X193000000Y-132600000D01*
D10*
X182820000Y-131900000D02*
X182820000Y-134150000D01*
X193100000Y-129000000D02*
X193100000Y-129360000D01*
D15*
X182800000Y-134300000D02*
X184200000Y-134300000D01*
D10*
X192900000Y-129360000D02*
X193100000Y-129360000D01*
X193100000Y-129000000D02*
X189820000Y-129000000D01*
X182600000Y-131900000D02*
X182800000Y-131900000D01*
X193100000Y-132600000D02*
X193100000Y-131600000D01*
X182800000Y-134150000D02*
X182600000Y-134150000D01*
X193100000Y-131600000D02*
X192900000Y-131600000D01*
X187600000Y-130900000D02*
X182600000Y-130900000D01*
D14*
X192900000Y-129200000D02*
X190200000Y-129200000D01*
D16*
X183300000Y-133900000D02*
X183300000Y-131400000D01*
D15*
X182800000Y-131800000D02*
X182800000Y-131100000D01*
D17*
X191370000Y-133000000D02*
X191370000Y-130760000D01*
D18*
X192500000Y-129500000D02*
X192500000Y-131299999D01*
D12*
X188570600Y-122550000D02*
X190620600Y-122550000D01*
X188570600Y-124000000D02*
X188570600Y-122550000D01*
X190620600Y-124000000D02*
X188570600Y-124000000D01*
X190620600Y-122550000D02*
X190620600Y-124000000D01*
D16*
X190216318Y-129421471D02*
G75*
G02*
X188000000Y-131300000I-2151318J291471D01*
G01*
D10*
X193100000Y-132599999D02*
G75*
G02*
X191000001Y-134500000I-2000000J99999D01*
G01*
X189816318Y-129021471D02*
G75*
G02*
X187600000Y-130900000I-2151318J291471D01*
G01*
X173770000Y-127450000D02*
X173770000Y-125210000D01*
X163500000Y-130350000D02*
X171900001Y-130350000D01*
D13*
X165500000Y-128550000D02*
X172200000Y-128550000D01*
D10*
X163500000Y-130000000D02*
X163500000Y-130350000D01*
D14*
X163800000Y-127050000D02*
X165200000Y-127050000D01*
D10*
X163500000Y-126750000D02*
X163500000Y-127750000D01*
D12*
X173900000Y-127550001D02*
X173900000Y-128450000D01*
D10*
X163720000Y-127750000D02*
X163720000Y-130000000D01*
X174000000Y-124850000D02*
X174000000Y-125210000D01*
D15*
X163700000Y-130150000D02*
X165100000Y-130150000D01*
D10*
X173800000Y-125210000D02*
X174000000Y-125210000D01*
X174000000Y-124850000D02*
X170720000Y-124850000D01*
X163500000Y-127750000D02*
X163700000Y-127750000D01*
X174000000Y-128450000D02*
X174000000Y-127450000D01*
X163700000Y-130000000D02*
X163500000Y-130000000D01*
X174000000Y-127450000D02*
X173800000Y-127450000D01*
X168500000Y-126750000D02*
X163500000Y-126750000D01*
D14*
X173800000Y-125050000D02*
X171100000Y-125050000D01*
D16*
X164200000Y-129750000D02*
X164200000Y-127250000D01*
D15*
X163700000Y-127650000D02*
X163700000Y-126950000D01*
D17*
X172270000Y-128850000D02*
X172270000Y-126610000D01*
D18*
X173400000Y-125350000D02*
X173400000Y-127149999D01*
D12*
X169470600Y-118400000D02*
X171520600Y-118400000D01*
X169470600Y-119850000D02*
X169470600Y-118400000D01*
X171520600Y-119850000D02*
X169470600Y-119850000D01*
X171520600Y-118400000D02*
X171520600Y-119850000D01*
D16*
X171116318Y-125271471D02*
G75*
G02*
X168900000Y-127150000I-2151318J291471D01*
G01*
D10*
X174000000Y-128449999D02*
G75*
G02*
X171900001Y-130350000I-2000000J99999D01*
G01*
X170716318Y-124871471D02*
G75*
G02*
X168500000Y-126750000I-2151318J291471D01*
G01*
X154670000Y-127450000D02*
X154670000Y-125210000D01*
X144400000Y-130350000D02*
X152800001Y-130350000D01*
D13*
X146400000Y-128550000D02*
X153100000Y-128550000D01*
D10*
X144400000Y-130000000D02*
X144400000Y-130350000D01*
D14*
X144700000Y-127050000D02*
X146100000Y-127050000D01*
D10*
X144400000Y-126750000D02*
X144400000Y-127750000D01*
D12*
X154800000Y-127550001D02*
X154800000Y-128450000D01*
D10*
X144620000Y-127750000D02*
X144620000Y-130000000D01*
X154900000Y-124850000D02*
X154900000Y-125210000D01*
D15*
X144600000Y-130150000D02*
X146000000Y-130150000D01*
D10*
X154700000Y-125210000D02*
X154900000Y-125210000D01*
X154900000Y-124850000D02*
X151620000Y-124850000D01*
X144400000Y-127750000D02*
X144600000Y-127750000D01*
X154900000Y-128450000D02*
X154900000Y-127450000D01*
X144600000Y-130000000D02*
X144400000Y-130000000D01*
X154900000Y-127450000D02*
X154700000Y-127450000D01*
X149400000Y-126750000D02*
X144400000Y-126750000D01*
D14*
X154700000Y-125050000D02*
X152000000Y-125050000D01*
D16*
X145100000Y-129750000D02*
X145100000Y-127250000D01*
D15*
X144600000Y-127650000D02*
X144600000Y-126950000D01*
D17*
X153170000Y-128850000D02*
X153170000Y-126610000D01*
D18*
X154300000Y-125350000D02*
X154300000Y-127149999D01*
D12*
X150370600Y-118400000D02*
X152420600Y-118400000D01*
X150370600Y-119850000D02*
X150370600Y-118400000D01*
X152420600Y-119850000D02*
X150370600Y-119850000D01*
X152420600Y-118400000D02*
X152420600Y-119850000D01*
D16*
X152016318Y-125271471D02*
G75*
G02*
X149800000Y-127150000I-2151318J291471D01*
G01*
D10*
X154900000Y-128449999D02*
G75*
G02*
X152800001Y-130350000I-2000000J99999D01*
G01*
X151616318Y-124871471D02*
G75*
G02*
X149400000Y-126750000I-2151318J291471D01*
G01*
X134314430Y-128526422D02*
X133734675Y-126362748D01*
X125144947Y-133985678D02*
X133258725Y-131811598D01*
D13*
X126610924Y-131729373D02*
X133082627Y-129995286D01*
D10*
X125054360Y-133647604D02*
X125144947Y-133985678D01*
D14*
X124580622Y-130720477D02*
X125932918Y-130358130D01*
D10*
X124213198Y-130508345D02*
X124472017Y-131474271D01*
D12*
X134465882Y-128589369D02*
X134698819Y-129458701D01*
D10*
X124684521Y-131417331D02*
X125266864Y-133590664D01*
X133863663Y-125955486D02*
X133956838Y-126303219D01*
D15*
X125286368Y-133740729D02*
X126638664Y-133378382D01*
D10*
X133763653Y-126354983D02*
X133956838Y-126303219D01*
X133863663Y-125955486D02*
X130695427Y-126804413D01*
X124472017Y-131474271D02*
X124665203Y-131422507D01*
X134795412Y-129432819D02*
X134536593Y-128466893D01*
X125247545Y-133595840D02*
X125054360Y-133647604D01*
X134536593Y-128466893D02*
X134343408Y-128518657D01*
X129042827Y-129214250D02*
X124213198Y-130508345D01*
D14*
X133722242Y-126200435D02*
X131114242Y-126899246D01*
D16*
X125665804Y-133224949D02*
X125018756Y-130810135D01*
D15*
X124639321Y-131325915D02*
X124458147Y-130649766D01*
D17*
X133227888Y-130266946D02*
X132648133Y-128103272D01*
D18*
X133413517Y-126593740D02*
X133879391Y-128332406D01*
D12*
X127819216Y-120897559D02*
X129799364Y-120366980D01*
X128194504Y-122298152D02*
X127819216Y-120897559D01*
X130174652Y-121767573D02*
X128194504Y-122298152D01*
X129799364Y-120366980D02*
X130174652Y-121767573D01*
D16*
X131187326Y-127108947D02*
G75*
G02*
X129532725Y-129497093I-2153453J-275263D01*
G01*
D10*
X134795411Y-129432818D02*
G75*
G02*
X133258725Y-131811598I-1957733J-421047D01*
G01*
X130697427Y-126826105D02*
G75*
G02*
X129042827Y-129214250I-2153452J-275263D01*
G01*
X105590706Y-136830364D02*
X107530603Y-135710364D01*
X97944232Y-129386283D02*
X102144233Y-136660897D01*
D13*
X100503078Y-130218334D02*
X103853078Y-136020704D01*
D10*
X98247341Y-129211283D02*
X97944232Y-129386283D01*
D14*
X100952116Y-127996091D02*
X101652116Y-129208526D01*
D10*
X101061924Y-127586283D02*
X100195898Y-128086283D01*
D12*
X105569103Y-136992948D02*
X104789681Y-137442947D01*
D10*
X100305898Y-128276809D02*
X98357341Y-129401809D01*
X107957372Y-135729550D02*
X107645603Y-135909550D01*
D15*
X98217437Y-129459488D02*
X98917437Y-130671924D01*
D10*
X107545603Y-135736345D02*
X107645603Y-135909550D01*
X107957372Y-135729550D02*
X106317372Y-132888987D01*
X100195898Y-128086283D02*
X100295898Y-128259488D01*
X104839681Y-137529550D02*
X105705706Y-137029550D01*
X98347341Y-129384488D02*
X98247341Y-129211283D01*
X105705706Y-137029550D02*
X105605706Y-136856345D01*
X103561924Y-131916410D02*
X101061924Y-127586283D01*
D14*
X107684167Y-135656345D02*
X106334167Y-133318076D01*
D16*
X98813848Y-129692501D02*
X100978911Y-128442501D01*
D15*
X100382501Y-128209488D02*
X100988719Y-127859488D01*
D17*
X103628270Y-136231326D02*
X105568167Y-135111326D01*
D18*
X107224359Y-135459935D02*
X105665514Y-136359934D01*
D12*
X111278536Y-128581974D02*
X112303536Y-130357326D01*
X110022799Y-129306974D02*
X111278536Y-128581974D01*
X111047799Y-131082326D02*
X110022799Y-129306974D01*
X112303536Y-130357326D02*
X111047799Y-131082326D01*
D16*
X106150527Y-133442943D02*
G75*
G02*
X103415514Y-132462820I-823238J2008831D01*
G01*
D10*
X104839681Y-137529549D02*
G75*
G02*
X102144233Y-136660897I-913398J1782050D01*
G01*
X106296937Y-132896533D02*
G75*
G02*
X103561924Y-131916410I-823238J2008831D01*
G01*
X221420000Y-114700000D02*
X221420000Y-112460000D01*
X211150000Y-117600000D02*
X219550001Y-117600000D01*
D13*
X213150000Y-115800000D02*
X219850000Y-115800000D01*
D10*
X211150000Y-117250000D02*
X211150000Y-117600000D01*
D14*
X211450000Y-114300000D02*
X212850000Y-114300000D01*
D10*
X211150000Y-114000000D02*
X211150000Y-115000000D01*
D12*
X221550000Y-114800001D02*
X221550000Y-115700000D01*
D10*
X211370000Y-115000000D02*
X211370000Y-117250000D01*
X221650000Y-112100000D02*
X221650000Y-112460000D01*
D15*
X211350000Y-117400000D02*
X212750000Y-117400000D01*
D10*
X221450000Y-112460000D02*
X221650000Y-112460000D01*
X221650000Y-112100000D02*
X218370000Y-112100000D01*
X211150000Y-115000000D02*
X211350000Y-115000000D01*
X221650000Y-115700000D02*
X221650000Y-114700000D01*
X211350000Y-117250000D02*
X211150000Y-117250000D01*
X221650000Y-114700000D02*
X221450000Y-114700000D01*
X216150000Y-114000000D02*
X211150000Y-114000000D01*
D14*
X221450000Y-112300000D02*
X218750000Y-112300000D01*
D16*
X211850000Y-117000000D02*
X211850000Y-114500000D01*
D15*
X211350000Y-114900000D02*
X211350000Y-114200000D01*
D17*
X219920000Y-116100000D02*
X219920000Y-113860000D01*
D18*
X221050000Y-112600000D02*
X221050000Y-114399999D01*
D12*
X217120600Y-105650000D02*
X219170600Y-105650000D01*
X217120600Y-107100000D02*
X217120600Y-105650000D01*
X219170600Y-107100000D02*
X217120600Y-107100000D01*
X219170600Y-105650000D02*
X219170600Y-107100000D01*
D16*
X218766318Y-112521471D02*
G75*
G02*
X216550000Y-114400000I-2151318J291471D01*
G01*
D10*
X221650000Y-115699999D02*
G75*
G02*
X219550001Y-117600000I-2000000J99999D01*
G01*
X218366318Y-112121471D02*
G75*
G02*
X216150000Y-114000000I-2151318J291471D01*
G01*
X183270000Y-108500000D02*
X183270000Y-106260000D01*
X173000000Y-111400000D02*
X181400001Y-111400000D01*
D13*
X175000000Y-109600000D02*
X181700000Y-109600000D01*
D10*
X173000000Y-111050000D02*
X173000000Y-111400000D01*
D14*
X173300000Y-108100000D02*
X174700000Y-108100000D01*
D10*
X173000000Y-107800000D02*
X173000000Y-108800000D01*
D12*
X183400000Y-108600001D02*
X183400000Y-109500000D01*
D10*
X173220000Y-108800000D02*
X173220000Y-111050000D01*
X183500000Y-105900000D02*
X183500000Y-106260000D01*
D15*
X173200000Y-111200000D02*
X174600000Y-111200000D01*
D10*
X183300000Y-106260000D02*
X183500000Y-106260000D01*
X183500000Y-105900000D02*
X180220000Y-105900000D01*
X173000000Y-108800000D02*
X173200000Y-108800000D01*
X183500000Y-109500000D02*
X183500000Y-108500000D01*
X173200000Y-111050000D02*
X173000000Y-111050000D01*
X183500000Y-108500000D02*
X183300000Y-108500000D01*
X178000000Y-107800000D02*
X173000000Y-107800000D01*
D14*
X183300000Y-106100000D02*
X180600000Y-106100000D01*
D16*
X173700000Y-110800000D02*
X173700000Y-108300000D01*
D15*
X173200000Y-108700000D02*
X173200000Y-108000000D01*
D17*
X181770000Y-109900000D02*
X181770000Y-107660000D01*
D18*
X182900000Y-106400000D02*
X182900000Y-108199999D01*
D12*
X178970600Y-99450000D02*
X181020600Y-99450000D01*
X178970600Y-100900000D02*
X178970600Y-99450000D01*
X181020600Y-100900000D02*
X178970600Y-100900000D01*
X181020600Y-99450000D02*
X181020600Y-100900000D01*
D16*
X180616318Y-106321471D02*
G75*
G02*
X178400000Y-108200000I-2151318J291471D01*
G01*
D10*
X183500000Y-109499999D02*
G75*
G02*
X181400001Y-111400000I-2000000J99999D01*
G01*
X180216318Y-105921471D02*
G75*
G02*
X178000000Y-107800000I-2151318J291471D01*
G01*
X164270000Y-107100000D02*
X164270000Y-104860000D01*
X154000000Y-110000000D02*
X162400001Y-110000000D01*
D13*
X156000000Y-108200000D02*
X162700000Y-108200000D01*
D10*
X154000000Y-109650000D02*
X154000000Y-110000000D01*
D14*
X154300000Y-106700000D02*
X155700000Y-106700000D01*
D10*
X154000000Y-106400000D02*
X154000000Y-107400000D01*
D12*
X164400000Y-107200001D02*
X164400000Y-108100000D01*
D10*
X154220000Y-107400000D02*
X154220000Y-109650000D01*
X164500000Y-104500000D02*
X164500000Y-104860000D01*
D15*
X154200000Y-109800000D02*
X155600000Y-109800000D01*
D10*
X164300000Y-104860000D02*
X164500000Y-104860000D01*
X164500000Y-104500000D02*
X161220000Y-104500000D01*
X154000000Y-107400000D02*
X154200000Y-107400000D01*
X164500000Y-108100000D02*
X164500000Y-107100000D01*
X154200000Y-109650000D02*
X154000000Y-109650000D01*
X164500000Y-107100000D02*
X164300000Y-107100000D01*
X159000000Y-106400000D02*
X154000000Y-106400000D01*
D14*
X164300000Y-104700000D02*
X161600000Y-104700000D01*
D16*
X154700000Y-109400000D02*
X154700000Y-106900000D01*
D15*
X154200000Y-107300000D02*
X154200000Y-106600000D01*
D17*
X162770000Y-108500000D02*
X162770000Y-106260000D01*
D18*
X163900000Y-105000000D02*
X163900000Y-106799999D01*
D12*
X159970600Y-98050000D02*
X162020600Y-98050000D01*
X159970600Y-99500000D02*
X159970600Y-98050000D01*
X162020600Y-99500000D02*
X159970600Y-99500000D01*
X162020600Y-98050000D02*
X162020600Y-99500000D01*
D16*
X161616318Y-104921471D02*
G75*
G02*
X159400000Y-106800000I-2151318J291471D01*
G01*
D10*
X164500000Y-108099999D02*
G75*
G02*
X162400001Y-110000000I-2000000J99999D01*
G01*
X161216318Y-104521471D02*
G75*
G02*
X159000000Y-106400000I-2151318J291471D01*
G01*
X145170000Y-108500000D02*
X145170000Y-106260000D01*
X134900000Y-111400000D02*
X143300001Y-111400000D01*
D13*
X136900000Y-109600000D02*
X143600000Y-109600000D01*
D10*
X134900000Y-111050000D02*
X134900000Y-111400000D01*
D14*
X135200000Y-108100000D02*
X136600000Y-108100000D01*
D10*
X134900000Y-107800000D02*
X134900000Y-108800000D01*
D12*
X145300000Y-108600001D02*
X145300000Y-109500000D01*
D10*
X135120000Y-108800000D02*
X135120000Y-111050000D01*
X145400000Y-105900000D02*
X145400000Y-106260000D01*
D15*
X135100000Y-111200000D02*
X136500000Y-111200000D01*
D10*
X145200000Y-106260000D02*
X145400000Y-106260000D01*
X145400000Y-105900000D02*
X142120000Y-105900000D01*
X134900000Y-108800000D02*
X135100000Y-108800000D01*
X145400000Y-109500000D02*
X145400000Y-108500000D01*
X135100000Y-111050000D02*
X134900000Y-111050000D01*
X145400000Y-108500000D02*
X145200000Y-108500000D01*
X139900000Y-107800000D02*
X134900000Y-107800000D01*
D14*
X145200000Y-106100000D02*
X142500000Y-106100000D01*
D16*
X135600000Y-110800000D02*
X135600000Y-108300000D01*
D15*
X135100000Y-108700000D02*
X135100000Y-108000000D01*
D17*
X143670000Y-109900000D02*
X143670000Y-107660000D01*
D18*
X144800000Y-106400000D02*
X144800000Y-108199999D01*
D12*
X140870600Y-99450000D02*
X142920600Y-99450000D01*
X140870600Y-100900000D02*
X140870600Y-99450000D01*
X142920600Y-100900000D02*
X140870600Y-100900000D01*
X142920600Y-99450000D02*
X142920600Y-100900000D01*
D16*
X142516318Y-106321471D02*
G75*
G02*
X140300000Y-108200000I-2151318J291471D01*
G01*
D10*
X145400000Y-109499999D02*
G75*
G02*
X143300001Y-111400000I-2000000J99999D01*
G01*
X142116318Y-105921471D02*
G75*
G02*
X139900000Y-107800000I-2151318J291471D01*
G01*
X126170000Y-110800000D02*
X126170000Y-108560000D01*
X115900000Y-113700000D02*
X124300001Y-113700000D01*
D13*
X117900000Y-111900000D02*
X124600000Y-111900000D01*
D10*
X115900000Y-113350000D02*
X115900000Y-113700000D01*
D14*
X116200000Y-110400000D02*
X117600000Y-110400000D01*
D10*
X115900000Y-110100000D02*
X115900000Y-111100000D01*
D12*
X126300000Y-110900001D02*
X126300000Y-111800000D01*
D10*
X116120000Y-111100000D02*
X116120000Y-113350000D01*
X126400000Y-108200000D02*
X126400000Y-108560000D01*
D15*
X116100000Y-113500000D02*
X117500000Y-113500000D01*
D10*
X126200000Y-108560000D02*
X126400000Y-108560000D01*
X126400000Y-108200000D02*
X123120000Y-108200000D01*
X115900000Y-111100000D02*
X116100000Y-111100000D01*
X126400000Y-111800000D02*
X126400000Y-110800000D01*
X116100000Y-113350000D02*
X115900000Y-113350000D01*
X126400000Y-110800000D02*
X126200000Y-110800000D01*
X120900000Y-110100000D02*
X115900000Y-110100000D01*
D14*
X126200000Y-108400000D02*
X123500000Y-108400000D01*
D16*
X116600000Y-113100000D02*
X116600000Y-110600000D01*
D15*
X116100000Y-111000000D02*
X116100000Y-110300000D01*
D17*
X124670000Y-112200000D02*
X124670000Y-109960000D01*
D18*
X125800000Y-108700000D02*
X125800000Y-110499999D01*
D12*
X121870600Y-101750000D02*
X123920600Y-101750000D01*
X121870600Y-103200000D02*
X121870600Y-101750000D01*
X123920600Y-103200000D02*
X121870600Y-103200000D01*
X123920600Y-101750000D02*
X123920600Y-103200000D01*
D16*
X123516318Y-108621471D02*
G75*
G02*
X121300000Y-110500000I-2151318J291471D01*
G01*
D10*
X126400000Y-111799999D02*
G75*
G02*
X124300001Y-113700000I-2000000J99999D01*
G01*
X123116318Y-108221471D02*
G75*
G02*
X120900000Y-110100000I-2151318J291471D01*
G01*
X221370000Y-95700000D02*
X221370000Y-93460000D01*
X211100000Y-98600000D02*
X219500001Y-98600000D01*
D13*
X213100000Y-96800000D02*
X219800000Y-96800000D01*
D10*
X211100000Y-98250000D02*
X211100000Y-98600000D01*
D14*
X211400000Y-95300000D02*
X212800000Y-95300000D01*
D10*
X211100000Y-95000000D02*
X211100000Y-96000000D01*
D12*
X221500000Y-95800001D02*
X221500000Y-96700000D01*
D10*
X211320000Y-96000000D02*
X211320000Y-98250000D01*
X221600000Y-93100000D02*
X221600000Y-93460000D01*
D15*
X211300000Y-98400000D02*
X212700000Y-98400000D01*
D10*
X221400000Y-93460000D02*
X221600000Y-93460000D01*
X221600000Y-93100000D02*
X218320000Y-93100000D01*
X211100000Y-96000000D02*
X211300000Y-96000000D01*
X221600000Y-96700000D02*
X221600000Y-95700000D01*
X211300000Y-98250000D02*
X211100000Y-98250000D01*
X221600000Y-95700000D02*
X221400000Y-95700000D01*
X216100000Y-95000000D02*
X211100000Y-95000000D01*
D14*
X221400000Y-93300000D02*
X218700000Y-93300000D01*
D16*
X211800000Y-98000000D02*
X211800000Y-95500000D01*
D15*
X211300000Y-95900000D02*
X211300000Y-95200000D01*
D17*
X219870000Y-97100000D02*
X219870000Y-94860000D01*
D18*
X221000000Y-93600000D02*
X221000000Y-95399999D01*
D12*
X217070600Y-86650000D02*
X219120600Y-86650000D01*
X217070600Y-88100000D02*
X217070600Y-86650000D01*
X219120600Y-88100000D02*
X217070600Y-88100000D01*
X219120600Y-86650000D02*
X219120600Y-88100000D01*
D16*
X218716318Y-93521471D02*
G75*
G02*
X216500000Y-95400000I-2151318J291471D01*
G01*
D10*
X221600000Y-96699999D02*
G75*
G02*
X219500001Y-98600000I-2000000J99999D01*
G01*
X218316318Y-93121471D02*
G75*
G02*
X216100000Y-95000000I-2151318J291471D01*
G01*
X183270000Y-89400000D02*
X183270000Y-87160000D01*
X173000000Y-92300000D02*
X181400001Y-92300000D01*
D13*
X175000000Y-90500000D02*
X181700000Y-90500000D01*
D10*
X173000000Y-91950000D02*
X173000000Y-92300000D01*
D14*
X173300000Y-89000000D02*
X174700000Y-89000000D01*
D10*
X173000000Y-88700000D02*
X173000000Y-89700000D01*
D12*
X183400000Y-89500001D02*
X183400000Y-90400000D01*
D10*
X173220000Y-89700000D02*
X173220000Y-91950000D01*
X183500000Y-86800000D02*
X183500000Y-87160000D01*
D15*
X173200000Y-92100000D02*
X174600000Y-92100000D01*
D10*
X183300000Y-87160000D02*
X183500000Y-87160000D01*
X183500000Y-86800000D02*
X180220000Y-86800000D01*
X173000000Y-89700000D02*
X173200000Y-89700000D01*
X183500000Y-90400000D02*
X183500000Y-89400000D01*
X173200000Y-91950000D02*
X173000000Y-91950000D01*
X183500000Y-89400000D02*
X183300000Y-89400000D01*
X178000000Y-88700000D02*
X173000000Y-88700000D01*
D14*
X183300000Y-87000000D02*
X180600000Y-87000000D01*
D16*
X173700000Y-91700000D02*
X173700000Y-89200000D01*
D15*
X173200000Y-89600000D02*
X173200000Y-88900000D01*
D17*
X181770000Y-90800000D02*
X181770000Y-88560000D01*
D18*
X182900000Y-87300000D02*
X182900000Y-89099999D01*
D12*
X178970600Y-80350000D02*
X181020600Y-80350000D01*
X178970600Y-81800000D02*
X178970600Y-80350000D01*
X181020600Y-81800000D02*
X178970600Y-81800000D01*
X181020600Y-80350000D02*
X181020600Y-81800000D01*
D16*
X180616318Y-87221471D02*
G75*
G02*
X178400000Y-89100000I-2151318J291471D01*
G01*
D10*
X183500000Y-90399999D02*
G75*
G02*
X181400001Y-92300000I-2000000J99999D01*
G01*
X180216318Y-86821471D02*
G75*
G02*
X178000000Y-88700000I-2151318J291471D01*
G01*
X164270000Y-88100000D02*
X164270000Y-85860000D01*
X154000000Y-91000000D02*
X162400001Y-91000000D01*
D13*
X156000000Y-89200000D02*
X162700000Y-89200000D01*
D10*
X154000000Y-90650000D02*
X154000000Y-91000000D01*
D14*
X154300000Y-87700000D02*
X155700000Y-87700000D01*
D10*
X154000000Y-87400000D02*
X154000000Y-88400000D01*
D12*
X164400000Y-88200001D02*
X164400000Y-89100000D01*
D10*
X154220000Y-88400000D02*
X154220000Y-90650000D01*
X164500000Y-85500000D02*
X164500000Y-85860000D01*
D15*
X154200000Y-90800000D02*
X155600000Y-90800000D01*
D10*
X164300000Y-85860000D02*
X164500000Y-85860000D01*
X164500000Y-85500000D02*
X161220000Y-85500000D01*
X154000000Y-88400000D02*
X154200000Y-88400000D01*
X164500000Y-89100000D02*
X164500000Y-88100000D01*
X154200000Y-90650000D02*
X154000000Y-90650000D01*
X164500000Y-88100000D02*
X164300000Y-88100000D01*
X159000000Y-87400000D02*
X154000000Y-87400000D01*
D14*
X164300000Y-85700000D02*
X161600000Y-85700000D01*
D16*
X154700000Y-90400000D02*
X154700000Y-87900000D01*
D15*
X154200000Y-88300000D02*
X154200000Y-87600000D01*
D17*
X162770000Y-89500000D02*
X162770000Y-87260000D01*
D18*
X163900000Y-86000000D02*
X163900000Y-87799999D01*
D12*
X159970600Y-79050000D02*
X162020600Y-79050000D01*
X159970600Y-80500000D02*
X159970600Y-79050000D01*
X162020600Y-80500000D02*
X159970600Y-80500000D01*
X162020600Y-79050000D02*
X162020600Y-80500000D01*
D16*
X161616318Y-85921471D02*
G75*
G02*
X159400000Y-87800000I-2151318J291471D01*
G01*
D10*
X164500000Y-89099999D02*
G75*
G02*
X162400001Y-91000000I-2000000J99999D01*
G01*
X161216318Y-85521471D02*
G75*
G02*
X159000000Y-87400000I-2151318J291471D01*
G01*
X145170000Y-89400000D02*
X145170000Y-87160000D01*
X134900000Y-92300000D02*
X143300001Y-92300000D01*
D13*
X136900000Y-90500000D02*
X143600000Y-90500000D01*
D10*
X134900000Y-91950000D02*
X134900000Y-92300000D01*
D14*
X135200000Y-89000000D02*
X136600000Y-89000000D01*
D10*
X134900000Y-88700000D02*
X134900000Y-89700000D01*
D12*
X145300000Y-89500001D02*
X145300000Y-90400000D01*
D10*
X135120000Y-89700000D02*
X135120000Y-91950000D01*
X145400000Y-86800000D02*
X145400000Y-87160000D01*
D15*
X135100000Y-92100000D02*
X136500000Y-92100000D01*
D10*
X145200000Y-87160000D02*
X145400000Y-87160000D01*
X145400000Y-86800000D02*
X142120000Y-86800000D01*
X134900000Y-89700000D02*
X135100000Y-89700000D01*
X145400000Y-90400000D02*
X145400000Y-89400000D01*
X135100000Y-91950000D02*
X134900000Y-91950000D01*
X145400000Y-89400000D02*
X145200000Y-89400000D01*
X139900000Y-88700000D02*
X134900000Y-88700000D01*
D14*
X145200000Y-87000000D02*
X142500000Y-87000000D01*
D16*
X135600000Y-91700000D02*
X135600000Y-89200000D01*
D15*
X135100000Y-89600000D02*
X135100000Y-88900000D01*
D17*
X143670000Y-90800000D02*
X143670000Y-88560000D01*
D18*
X144800000Y-87300000D02*
X144800000Y-89099999D01*
D12*
X140870600Y-80350000D02*
X142920600Y-80350000D01*
X140870600Y-81800000D02*
X140870600Y-80350000D01*
X142920600Y-81800000D02*
X140870600Y-81800000D01*
X142920600Y-80350000D02*
X142920600Y-81800000D01*
D16*
X142516318Y-87221471D02*
G75*
G02*
X140300000Y-89100000I-2151318J291471D01*
G01*
D10*
X145400000Y-90399999D02*
G75*
G02*
X143300001Y-92300000I-2000000J99999D01*
G01*
X142116318Y-86821471D02*
G75*
G02*
X139900000Y-88700000I-2151318J291471D01*
G01*
X126170000Y-91800000D02*
X126170000Y-89560000D01*
X115900000Y-94700000D02*
X124300001Y-94700000D01*
D13*
X117900000Y-92900000D02*
X124600000Y-92900000D01*
D10*
X115900000Y-94350000D02*
X115900000Y-94700000D01*
D14*
X116200000Y-91400000D02*
X117600000Y-91400000D01*
D10*
X115900000Y-91100000D02*
X115900000Y-92100000D01*
D12*
X126300000Y-91900001D02*
X126300000Y-92800000D01*
D10*
X116120000Y-92100000D02*
X116120000Y-94350000D01*
X126400000Y-89200000D02*
X126400000Y-89560000D01*
D15*
X116100000Y-94500000D02*
X117500000Y-94500000D01*
D10*
X126200000Y-89560000D02*
X126400000Y-89560000D01*
X126400000Y-89200000D02*
X123120000Y-89200000D01*
X115900000Y-92100000D02*
X116100000Y-92100000D01*
X126400000Y-92800000D02*
X126400000Y-91800000D01*
X116100000Y-94350000D02*
X115900000Y-94350000D01*
X126400000Y-91800000D02*
X126200000Y-91800000D01*
X120900000Y-91100000D02*
X115900000Y-91100000D01*
D14*
X126200000Y-89400000D02*
X123500000Y-89400000D01*
D16*
X116600000Y-94100000D02*
X116600000Y-91600000D01*
D15*
X116100000Y-92000000D02*
X116100000Y-91300000D01*
D17*
X124670000Y-93200000D02*
X124670000Y-90960000D01*
D18*
X125800000Y-89700000D02*
X125800000Y-91499999D01*
D12*
X121870600Y-82750000D02*
X123920600Y-82750000D01*
X121870600Y-84200000D02*
X121870600Y-82750000D01*
X123920600Y-84200000D02*
X121870600Y-84200000D01*
X123920600Y-82750000D02*
X123920600Y-84200000D01*
D16*
X123516318Y-89621471D02*
G75*
G02*
X121300000Y-91500000I-2151318J291471D01*
G01*
D10*
X126400000Y-92799999D02*
G75*
G02*
X124300001Y-94700000I-2000000J99999D01*
G01*
X123116318Y-89221471D02*
G75*
G02*
X120900000Y-91100000I-2151318J291471D01*
G01*
X183270000Y-70300000D02*
X183270000Y-68060000D01*
X173000000Y-73200000D02*
X181400001Y-73200000D01*
D13*
X175000000Y-71400000D02*
X181700000Y-71400000D01*
D10*
X173000000Y-72850000D02*
X173000000Y-73200000D01*
D14*
X173300000Y-69900000D02*
X174700000Y-69900000D01*
D10*
X173000000Y-69600000D02*
X173000000Y-70600000D01*
D12*
X183400000Y-70400001D02*
X183400000Y-71300000D01*
D10*
X173220000Y-70600000D02*
X173220000Y-72850000D01*
X183500000Y-67700000D02*
X183500000Y-68060000D01*
D15*
X173200000Y-73000000D02*
X174600000Y-73000000D01*
D10*
X183300000Y-68060000D02*
X183500000Y-68060000D01*
X183500000Y-67700000D02*
X180220000Y-67700000D01*
X173000000Y-70600000D02*
X173200000Y-70600000D01*
X183500000Y-71300000D02*
X183500000Y-70300000D01*
X173200000Y-72850000D02*
X173000000Y-72850000D01*
X183500000Y-70300000D02*
X183300000Y-70300000D01*
X178000000Y-69600000D02*
X173000000Y-69600000D01*
D14*
X183300000Y-67900000D02*
X180600000Y-67900000D01*
D16*
X173700000Y-72600000D02*
X173700000Y-70100000D01*
D15*
X173200000Y-70500000D02*
X173200000Y-69800000D01*
D17*
X181770000Y-71700000D02*
X181770000Y-69460000D01*
D18*
X182900000Y-68200000D02*
X182900000Y-69999999D01*
D12*
X178970600Y-61250000D02*
X181020600Y-61250000D01*
X178970600Y-62700000D02*
X178970600Y-61250000D01*
X181020600Y-62700000D02*
X178970600Y-62700000D01*
X181020600Y-61250000D02*
X181020600Y-62700000D01*
D16*
X180616318Y-68121471D02*
G75*
G02*
X178400000Y-70000000I-2151318J291471D01*
G01*
D10*
X183500000Y-71299999D02*
G75*
G02*
X181400001Y-73200000I-2000000J99999D01*
G01*
X180216318Y-67721471D02*
G75*
G02*
X178000000Y-69600000I-2151318J291471D01*
G01*
X164270000Y-69000000D02*
X164270000Y-66760000D01*
X154000000Y-71900000D02*
X162400001Y-71900000D01*
D13*
X156000000Y-70100000D02*
X162700000Y-70100000D01*
D10*
X154000000Y-71550000D02*
X154000000Y-71900000D01*
D14*
X154300000Y-68600000D02*
X155700000Y-68600000D01*
D10*
X154000000Y-68300000D02*
X154000000Y-69300000D01*
D12*
X164400000Y-69100001D02*
X164400000Y-70000000D01*
D10*
X154220000Y-69300000D02*
X154220000Y-71550000D01*
X164500000Y-66400000D02*
X164500000Y-66760000D01*
D15*
X154200000Y-71700000D02*
X155600000Y-71700000D01*
D10*
X164300000Y-66760000D02*
X164500000Y-66760000D01*
X164500000Y-66400000D02*
X161220000Y-66400000D01*
X154000000Y-69300000D02*
X154200000Y-69300000D01*
X164500000Y-70000000D02*
X164500000Y-69000000D01*
X154200000Y-71550000D02*
X154000000Y-71550000D01*
X164500000Y-69000000D02*
X164300000Y-69000000D01*
X159000000Y-68300000D02*
X154000000Y-68300000D01*
D14*
X164300000Y-66600000D02*
X161600000Y-66600000D01*
D16*
X154700000Y-71300000D02*
X154700000Y-68800000D01*
D15*
X154200000Y-69200000D02*
X154200000Y-68500000D01*
D17*
X162770000Y-70400000D02*
X162770000Y-68160000D01*
D18*
X163900000Y-66900000D02*
X163900000Y-68699999D01*
D12*
X159970600Y-59950000D02*
X162020600Y-59950000D01*
X159970600Y-61400000D02*
X159970600Y-59950000D01*
X162020600Y-61400000D02*
X159970600Y-61400000D01*
X162020600Y-59950000D02*
X162020600Y-61400000D01*
D16*
X161616318Y-66821471D02*
G75*
G02*
X159400000Y-68700000I-2151318J291471D01*
G01*
D10*
X164500000Y-69999999D02*
G75*
G02*
X162400001Y-71900000I-2000000J99999D01*
G01*
X161216318Y-66421471D02*
G75*
G02*
X159000000Y-68300000I-2151318J291471D01*
G01*
X145170000Y-70400000D02*
X145170000Y-68160000D01*
X134900000Y-73300000D02*
X143300001Y-73300000D01*
D13*
X136900000Y-71500000D02*
X143600000Y-71500000D01*
D10*
X134900000Y-72950000D02*
X134900000Y-73300000D01*
D14*
X135200000Y-70000000D02*
X136600000Y-70000000D01*
D10*
X134900000Y-69700000D02*
X134900000Y-70700000D01*
D12*
X145300000Y-70500001D02*
X145300000Y-71400000D01*
D10*
X135120000Y-70700000D02*
X135120000Y-72950000D01*
X145400000Y-67800000D02*
X145400000Y-68160000D01*
D15*
X135100000Y-73100000D02*
X136500000Y-73100000D01*
D10*
X145200000Y-68160000D02*
X145400000Y-68160000D01*
X145400000Y-67800000D02*
X142120000Y-67800000D01*
X134900000Y-70700000D02*
X135100000Y-70700000D01*
X145400000Y-71400000D02*
X145400000Y-70400000D01*
X135100000Y-72950000D02*
X134900000Y-72950000D01*
X145400000Y-70400000D02*
X145200000Y-70400000D01*
X139900000Y-69700000D02*
X134900000Y-69700000D01*
D14*
X145200000Y-68000000D02*
X142500000Y-68000000D01*
D16*
X135600000Y-72700000D02*
X135600000Y-70200000D01*
D15*
X135100000Y-70600000D02*
X135100000Y-69900000D01*
D17*
X143670000Y-71800000D02*
X143670000Y-69560000D01*
D18*
X144800000Y-68300000D02*
X144800000Y-70099999D01*
D12*
X140870600Y-61350000D02*
X142920600Y-61350000D01*
X140870600Y-62800000D02*
X140870600Y-61350000D01*
X142920600Y-62800000D02*
X140870600Y-62800000D01*
X142920600Y-61350000D02*
X142920600Y-62800000D01*
D16*
X142516318Y-68221471D02*
G75*
G02*
X140300000Y-70100000I-2151318J291471D01*
G01*
D10*
X145400000Y-71399999D02*
G75*
G02*
X143300001Y-73300000I-2000000J99999D01*
G01*
X142116318Y-67821471D02*
G75*
G02*
X139900000Y-69700000I-2151318J291471D01*
G01*
X126170000Y-72800000D02*
X126170000Y-70560000D01*
X115900000Y-75700000D02*
X124300001Y-75700000D01*
D13*
X117900000Y-73900000D02*
X124600000Y-73900000D01*
D10*
X115900000Y-75350000D02*
X115900000Y-75700000D01*
D14*
X116200000Y-72400000D02*
X117600000Y-72400000D01*
D10*
X115900000Y-72100000D02*
X115900000Y-73100000D01*
D12*
X126300000Y-72900001D02*
X126300000Y-73800000D01*
D10*
X116120000Y-73100000D02*
X116120000Y-75350000D01*
X126400000Y-70200000D02*
X126400000Y-70560000D01*
D15*
X116100000Y-75500000D02*
X117500000Y-75500000D01*
D10*
X126200000Y-70560000D02*
X126400000Y-70560000D01*
X126400000Y-70200000D02*
X123120000Y-70200000D01*
X115900000Y-73100000D02*
X116100000Y-73100000D01*
X126400000Y-73800000D02*
X126400000Y-72800000D01*
X116100000Y-75350000D02*
X115900000Y-75350000D01*
X126400000Y-72800000D02*
X126200000Y-72800000D01*
X120900000Y-72100000D02*
X115900000Y-72100000D01*
D14*
X126200000Y-70400000D02*
X123500000Y-70400000D01*
D16*
X116600000Y-75100000D02*
X116600000Y-72600000D01*
D15*
X116100000Y-73000000D02*
X116100000Y-72300000D01*
D17*
X124670000Y-74200000D02*
X124670000Y-71960000D01*
D18*
X125800000Y-70700000D02*
X125800000Y-72499999D01*
D12*
X121870600Y-63750000D02*
X123920600Y-63750000D01*
X121870600Y-65200000D02*
X121870600Y-63750000D01*
X123920600Y-65200000D02*
X121870600Y-65200000D01*
X123920600Y-63750000D02*
X123920600Y-65200000D01*
D16*
X123516318Y-70621471D02*
G75*
G02*
X121300000Y-72500000I-2151318J291471D01*
G01*
D10*
X126400000Y-73799999D02*
G75*
G02*
X124300001Y-75700000I-2000000J99999D01*
G01*
X123116318Y-70221471D02*
G75*
G02*
X120900000Y-72100000I-2151318J291471D01*
G01*
X202370000Y-56100000D02*
X202370000Y-53860000D01*
X192100000Y-59000000D02*
X200500001Y-59000000D01*
D13*
X194100000Y-57200000D02*
X200800000Y-57200000D01*
D10*
X192100000Y-58650000D02*
X192100000Y-59000000D01*
D14*
X192400000Y-55700000D02*
X193800000Y-55700000D01*
D10*
X192100000Y-55400000D02*
X192100000Y-56400000D01*
D12*
X202500000Y-56200001D02*
X202500000Y-57100000D01*
D10*
X192320000Y-56400000D02*
X192320000Y-58650000D01*
X202600000Y-53500000D02*
X202600000Y-53860000D01*
D15*
X192300000Y-58800000D02*
X193700000Y-58800000D01*
D10*
X202400000Y-53860000D02*
X202600000Y-53860000D01*
X202600000Y-53500000D02*
X199320000Y-53500000D01*
X192100000Y-56400000D02*
X192300000Y-56400000D01*
X202600000Y-57100000D02*
X202600000Y-56100000D01*
X192300000Y-58650000D02*
X192100000Y-58650000D01*
X202600000Y-56100000D02*
X202400000Y-56100000D01*
X197100000Y-55400000D02*
X192100000Y-55400000D01*
D14*
X202400000Y-53700000D02*
X199700000Y-53700000D01*
D16*
X192800000Y-58400000D02*
X192800000Y-55900000D01*
D15*
X192300000Y-56300000D02*
X192300000Y-55600000D01*
D17*
X200870000Y-57500000D02*
X200870000Y-55260000D01*
D18*
X202000000Y-54000000D02*
X202000000Y-55799999D01*
D12*
X198070600Y-47050000D02*
X200120600Y-47050000D01*
X198070600Y-48500000D02*
X198070600Y-47050000D01*
X200120600Y-48500000D02*
X198070600Y-48500000D01*
X200120600Y-47050000D02*
X200120600Y-48500000D01*
D16*
X199716318Y-53921471D02*
G75*
G02*
X197500000Y-55800000I-2151318J291471D01*
G01*
D10*
X202600000Y-57099999D02*
G75*
G02*
X200500001Y-59000000I-2000000J99999D01*
G01*
X199316318Y-53521471D02*
G75*
G02*
X197100000Y-55400000I-2151318J291471D01*
G01*
X183270000Y-51300000D02*
X183270000Y-49060000D01*
X173000000Y-54200000D02*
X181400001Y-54200000D01*
D13*
X175000000Y-52400000D02*
X181700000Y-52400000D01*
D10*
X173000000Y-53850000D02*
X173000000Y-54200000D01*
D14*
X173300000Y-50900000D02*
X174700000Y-50900000D01*
D10*
X173000000Y-50600000D02*
X173000000Y-51600000D01*
D12*
X183400000Y-51400001D02*
X183400000Y-52300000D01*
D10*
X173220000Y-51600000D02*
X173220000Y-53850000D01*
X183500000Y-48700000D02*
X183500000Y-49060000D01*
D15*
X173200000Y-54000000D02*
X174600000Y-54000000D01*
D10*
X183300000Y-49060000D02*
X183500000Y-49060000D01*
X183500000Y-48700000D02*
X180220000Y-48700000D01*
X173000000Y-51600000D02*
X173200000Y-51600000D01*
X183500000Y-52300000D02*
X183500000Y-51300000D01*
X173200000Y-53850000D02*
X173000000Y-53850000D01*
X183500000Y-51300000D02*
X183300000Y-51300000D01*
X178000000Y-50600000D02*
X173000000Y-50600000D01*
D14*
X183300000Y-48900000D02*
X180600000Y-48900000D01*
D16*
X173700000Y-53600000D02*
X173700000Y-51100000D01*
D15*
X173200000Y-51500000D02*
X173200000Y-50800000D01*
D17*
X181770000Y-52700000D02*
X181770000Y-50460000D01*
D18*
X182900000Y-49200000D02*
X182900000Y-50999999D01*
D12*
X178970600Y-42250000D02*
X181020600Y-42250000D01*
X178970600Y-43700000D02*
X178970600Y-42250000D01*
X181020600Y-43700000D02*
X178970600Y-43700000D01*
X181020600Y-42250000D02*
X181020600Y-43700000D01*
D16*
X180616318Y-49121471D02*
G75*
G02*
X178400000Y-51000000I-2151318J291471D01*
G01*
D10*
X183500000Y-52299999D02*
G75*
G02*
X181400001Y-54200000I-2000000J99999D01*
G01*
X180216318Y-48721471D02*
G75*
G02*
X178000000Y-50600000I-2151318J291471D01*
G01*
X164270000Y-49910000D02*
X164270000Y-47670000D01*
X154000000Y-52810000D02*
X162400001Y-52810000D01*
D13*
X156000000Y-51010000D02*
X162700000Y-51010000D01*
D10*
X154000000Y-52460000D02*
X154000000Y-52810000D01*
D14*
X154300000Y-49510000D02*
X155700000Y-49510000D01*
D10*
X154000000Y-49210000D02*
X154000000Y-50210000D01*
D12*
X164400000Y-50010001D02*
X164400000Y-50910000D01*
D10*
X154220000Y-50210000D02*
X154220000Y-52460000D01*
X164500000Y-47310000D02*
X164500000Y-47670000D01*
D15*
X154200000Y-52610000D02*
X155600000Y-52610000D01*
D10*
X164300000Y-47670000D02*
X164500000Y-47670000D01*
X164500000Y-47310000D02*
X161220000Y-47310000D01*
X154000000Y-50210000D02*
X154200000Y-50210000D01*
X164500000Y-50910000D02*
X164500000Y-49910000D01*
X154200000Y-52460000D02*
X154000000Y-52460000D01*
X164500000Y-49910000D02*
X164300000Y-49910000D01*
X159000000Y-49210000D02*
X154000000Y-49210000D01*
D14*
X164300000Y-47510000D02*
X161600000Y-47510000D01*
D16*
X154700000Y-52210000D02*
X154700000Y-49710000D01*
D15*
X154200000Y-50110000D02*
X154200000Y-49410000D01*
D17*
X162770000Y-51310000D02*
X162770000Y-49070000D01*
D18*
X163900000Y-47810000D02*
X163900000Y-49609999D01*
D12*
X159970600Y-40860000D02*
X162020600Y-40860000D01*
X159970600Y-42310000D02*
X159970600Y-40860000D01*
X162020600Y-42310000D02*
X159970600Y-42310000D01*
X162020600Y-40860000D02*
X162020600Y-42310000D01*
D16*
X161616318Y-47731471D02*
G75*
G02*
X159400000Y-49610000I-2151318J291471D01*
G01*
D10*
X164500000Y-50909999D02*
G75*
G02*
X162400001Y-52810000I-2000000J99999D01*
G01*
X161216318Y-47331471D02*
G75*
G02*
X159000000Y-49210000I-2151318J291471D01*
G01*
X126170000Y-53700000D02*
X126170000Y-51460000D01*
X115900000Y-56600000D02*
X124300001Y-56600000D01*
D13*
X117900000Y-54800000D02*
X124600000Y-54800000D01*
D10*
X115900000Y-56250000D02*
X115900000Y-56600000D01*
D14*
X116200000Y-53300000D02*
X117600000Y-53300000D01*
D10*
X115900000Y-53000000D02*
X115900000Y-54000000D01*
D12*
X126300000Y-53800001D02*
X126300000Y-54700000D01*
D10*
X116120000Y-54000000D02*
X116120000Y-56250000D01*
X126400000Y-51100000D02*
X126400000Y-51460000D01*
D15*
X116100000Y-56400000D02*
X117500000Y-56400000D01*
D10*
X126200000Y-51460000D02*
X126400000Y-51460000D01*
X126400000Y-51100000D02*
X123120000Y-51100000D01*
X115900000Y-54000000D02*
X116100000Y-54000000D01*
X126400000Y-54700000D02*
X126400000Y-53700000D01*
X116100000Y-56250000D02*
X115900000Y-56250000D01*
X126400000Y-53700000D02*
X126200000Y-53700000D01*
X120900000Y-53000000D02*
X115900000Y-53000000D01*
D14*
X126200000Y-51300000D02*
X123500000Y-51300000D01*
D16*
X116600000Y-56000000D02*
X116600000Y-53500000D01*
D15*
X116100000Y-53900000D02*
X116100000Y-53200000D01*
D17*
X124670000Y-55100000D02*
X124670000Y-52860000D01*
D18*
X125800000Y-51600000D02*
X125800000Y-53399999D01*
D12*
X121870600Y-44650000D02*
X123920600Y-44650000D01*
X121870600Y-46100000D02*
X121870600Y-44650000D01*
X123920600Y-46100000D02*
X121870600Y-46100000D01*
X123920600Y-44650000D02*
X123920600Y-46100000D01*
D16*
X123516318Y-51521471D02*
G75*
G02*
X121300000Y-53400000I-2151318J291471D01*
G01*
D10*
X126400000Y-54699999D02*
G75*
G02*
X124300001Y-56600000I-2000000J99999D01*
G01*
X123116318Y-51121471D02*
G75*
G02*
X120900000Y-53000000I-2151318J291471D01*
G01*
X111600000Y-86500000D02*
X111600000Y-84700000D01*
X113400000Y-86500000D02*
X111600000Y-86500000D01*
X113400000Y-84700000D02*
X113400000Y-86500000D01*
X111600000Y-84700000D02*
X113400000Y-84700000D01*
X111600000Y-81400000D02*
X111600000Y-79600000D01*
X113400000Y-81400000D02*
X111600000Y-81400000D01*
X113400000Y-79600000D02*
X113400000Y-81400000D01*
X111600000Y-79600000D02*
X113400000Y-79600000D01*
X111600000Y-83900000D02*
X111600000Y-82100000D01*
X113400000Y-83900000D02*
X111600000Y-83900000D01*
X113400000Y-82100000D02*
X113400000Y-83900000D01*
X111600000Y-82100000D02*
X113400000Y-82100000D01*
X176300000Y-117950000D02*
X178100000Y-117950000D01*
X176300000Y-119750000D02*
X176300000Y-117950000D01*
X178100000Y-119750000D02*
X176300000Y-119750000D01*
X178100000Y-117950000D02*
X178100000Y-119750000D01*
X181400000Y-117950000D02*
X183200000Y-117950000D01*
X181400000Y-119750000D02*
X181400000Y-117950000D01*
X183200000Y-119750000D02*
X181400000Y-119750000D01*
X183200000Y-117950000D02*
X183200000Y-119750000D01*
X178900000Y-117950000D02*
X180700000Y-117950000D01*
X178900000Y-119750000D02*
X178900000Y-117950000D01*
X180700000Y-119750000D02*
X178900000Y-119750000D01*
X180700000Y-117950000D02*
X180700000Y-119750000D01*
X186400000Y-95250000D02*
X186400000Y-97050000D01*
X184600000Y-95250000D02*
X186400000Y-95250000D01*
X184600000Y-97050000D02*
X184600000Y-95250000D01*
X186400000Y-97050000D02*
X184600000Y-97050000D01*
X186400000Y-100350000D02*
X186400000Y-102150000D01*
X184600000Y-100350000D02*
X186400000Y-100350000D01*
X184600000Y-102150000D02*
X184600000Y-100350000D01*
X186400000Y-102150000D02*
X184600000Y-102150000D01*
X186400000Y-97850000D02*
X186400000Y-99650000D01*
X184600000Y-97850000D02*
X186400000Y-97850000D01*
X184600000Y-99650000D02*
X184600000Y-97850000D01*
X186400000Y-99650000D02*
X184600000Y-99650000D01*
D12*
X104785800Y-88100000D02*
X102335800Y-88100000D01*
X104785800Y-86650000D02*
X104785800Y-88100000D01*
X102335800Y-88100000D02*
X102335800Y-86650000D01*
X102335800Y-86650000D02*
X104755800Y-86650000D01*
X181035800Y-117100000D02*
X178585800Y-117100000D01*
X181035800Y-115650000D02*
X181035800Y-117100000D01*
X178585800Y-117100000D02*
X178585800Y-115650000D01*
X178585800Y-115650000D02*
X181005800Y-115650000D01*
X157535800Y-121350000D02*
X155085800Y-121350000D01*
X157535800Y-119900000D02*
X157535800Y-121350000D01*
X155085800Y-121350000D02*
X155085800Y-119900000D01*
X155085800Y-119900000D02*
X157505800Y-119900000D01*
X198464200Y-59650000D02*
X200914200Y-59650000D01*
X198464200Y-61100000D02*
X198464200Y-59650000D01*
X200914200Y-59650000D02*
X200914200Y-61100000D01*
X200914200Y-61100000D02*
X198494200Y-61100000D01*
X157535800Y-56600000D02*
X155085800Y-56600000D01*
X157535800Y-55150000D02*
X157535800Y-56600000D01*
X155085800Y-56600000D02*
X155085800Y-55150000D01*
X155085800Y-55150000D02*
X157505800Y-55150000D01*
X121464200Y-57900000D02*
X123914200Y-57900000D01*
X121464200Y-59350000D02*
X121464200Y-57900000D01*
X123914200Y-57900000D02*
X123914200Y-59350000D01*
X123914200Y-59350000D02*
X121494200Y-59350000D01*
D10*
X90910000Y-70440000D02*
X90910000Y-39960000D01*
X93450000Y-70440000D02*
X90910000Y-70440000D01*
X93450000Y-39960000D02*
X93450000Y-70440000D01*
X90910000Y-39960000D02*
X93450000Y-39960000D01*
X106150000Y-70440000D02*
X106150000Y-39960000D01*
X108690000Y-70440000D02*
X106150000Y-70440000D01*
X108690000Y-39960000D02*
X108690000Y-70440000D01*
X106150000Y-39960000D02*
X108690000Y-39960000D01*
X90910000Y-70440000D02*
X90910000Y-37420000D01*
X108690000Y-37420000D02*
X108690000Y-70440000D01*
X90910000Y-37420000D02*
X108690000Y-37420000D01*
X95430000Y-73330000D02*
X105590000Y-73330000D01*
X105590000Y-73330000D02*
X105590000Y-75870000D01*
X105590000Y-75870000D02*
X95430000Y-75870000D01*
X95430000Y-75870000D02*
X95430000Y-73330000D01*
X91800000Y-74500000D02*
X91800000Y-80400000D01*
X91800000Y-74500000D02*
X91800000Y-80500000D01*
X88300000Y-80500000D02*
X88300000Y-74500000D01*
X91800000Y-80500000D02*
X91100000Y-80500000D01*
X88300000Y-80500000D02*
X88900000Y-80500000D01*
X88300000Y-74500000D02*
X88900000Y-74500000D01*
X91800000Y-74500000D02*
X91100000Y-74500000D01*
X97589000Y-70443000D02*
X97589000Y-68157000D01*
X97589000Y-68157000D02*
X95811000Y-68157000D01*
X95811000Y-68157000D02*
X95811000Y-70443000D01*
X95811000Y-70443000D02*
X97589000Y-70443000D01*
X100089000Y-70443000D02*
X100089000Y-68157000D01*
X100089000Y-68157000D02*
X98311000Y-68157000D01*
X98311000Y-68157000D02*
X98311000Y-70443000D01*
X98311000Y-70443000D02*
X100089000Y-70443000D01*
X102589000Y-70443000D02*
X102589000Y-68157000D01*
X102589000Y-68157000D02*
X100811000Y-68157000D01*
X100811000Y-68157000D02*
X100811000Y-70443000D01*
X100811000Y-70443000D02*
X102589000Y-70443000D01*
X105189000Y-70443000D02*
X105189000Y-68157000D01*
X105189000Y-68157000D02*
X103411000Y-68157000D01*
X103411000Y-68157000D02*
X103411000Y-70443000D01*
X103411000Y-70443000D02*
X105189000Y-70443000D01*
X96539272Y-79311965D02*
X99539272Y-79311965D01*
X99539272Y-79311965D02*
X99539272Y-81311965D01*
X99539272Y-81311965D02*
X96539272Y-81311965D01*
X96539272Y-81311965D02*
X96539272Y-79311965D01*
X96539272Y-77061965D02*
X99539272Y-77061965D01*
X99539272Y-77061965D02*
X99539272Y-79061965D01*
X99539272Y-79061965D02*
X96539272Y-79061965D01*
X96539272Y-79061965D02*
X96539272Y-77061965D01*
X103700000Y-77100000D02*
X103700000Y-79100000D01*
X103700000Y-79100000D02*
X101700000Y-79100000D01*
X101700000Y-79100000D02*
X101700000Y-77100000D01*
X101700000Y-77100000D02*
X103700000Y-77100000D01*
X103700000Y-79300000D02*
X103700000Y-81300000D01*
X103700000Y-81300000D02*
X101700000Y-81300000D01*
X101700000Y-81300000D02*
X101700000Y-79300000D01*
X101700000Y-79300000D02*
X103700000Y-79300000D01*
D19*
X98000000Y-98600000D02*
X93900000Y-98600000D01*
X93900000Y-98600000D02*
X93900000Y-110400000D01*
X98000000Y-110400000D02*
X93900000Y-110400000D01*
X106100000Y-110400000D02*
X102000000Y-110400000D01*
X106100000Y-108000000D02*
X106100000Y-110400000D01*
X106100000Y-103200000D02*
X106100000Y-105800000D01*
X106100000Y-98600000D02*
X106100000Y-101000000D01*
X102000000Y-98600000D02*
X106100000Y-98600000D01*
X103000000Y-104500000D02*
G75*
G03*
X103000000Y-104500000I-3000000J0D01*
G01*
X100000000Y-104000000D02*
X100000000Y-105000000D01*
X99500000Y-104500000D02*
X100500000Y-104500000D01*
D10*
X108800000Y-75100000D02*
X108800000Y-76900000D01*
X107000000Y-75100000D02*
X108800000Y-75100000D01*
X107000000Y-76900000D02*
X107000000Y-75100000D01*
X108800000Y-76900000D02*
X107000000Y-76900000D01*
X108800000Y-80200000D02*
X108800000Y-82000000D01*
X107000000Y-80200000D02*
X108800000Y-80200000D01*
X107000000Y-82000000D02*
X107000000Y-80200000D01*
X108800000Y-82000000D02*
X107000000Y-82000000D01*
X108800000Y-77700000D02*
X108800000Y-79500000D01*
X107000000Y-77700000D02*
X108800000Y-77700000D01*
X107000000Y-79500000D02*
X107000000Y-77700000D01*
X108800000Y-79500000D02*
X107000000Y-79500000D01*
X88000000Y-90400000D02*
X88000000Y-84400000D01*
X88000000Y-84400000D02*
X100000000Y-84400000D01*
X100000000Y-84400000D02*
X100000000Y-90400000D01*
X100000000Y-90400000D02*
X88000000Y-90400000D01*
X98172605Y-80661904D02*
X98439272Y-80280952D01*
X98629748Y-80661904D02*
X98629748Y-79861904D01*
X98324986Y-79861904D01*
X98248795Y-79900000D01*
X98210700Y-79938095D01*
X98172605Y-80014285D01*
X98172605Y-80128571D01*
X98210700Y-80204761D01*
X98248795Y-80242857D01*
X98324986Y-80280952D01*
X98629748Y-80280952D01*
X97410700Y-80661904D02*
X97867843Y-80661904D01*
X97639272Y-80661904D02*
X97639272Y-79861904D01*
X97715462Y-79976190D01*
X97791652Y-80052380D01*
X97867843Y-80090476D01*
X98172605Y-78423869D02*
X98439272Y-78042917D01*
X98629748Y-78423869D02*
X98629748Y-77623869D01*
X98324986Y-77623869D01*
X98248795Y-77661965D01*
X98210700Y-77700060D01*
X98172605Y-77776250D01*
X98172605Y-77890536D01*
X98210700Y-77966726D01*
X98248795Y-78004822D01*
X98324986Y-78042917D01*
X98629748Y-78042917D01*
X97410700Y-78423869D02*
X97867843Y-78423869D01*
X97639272Y-78423869D02*
X97639272Y-77623869D01*
X97715462Y-77738155D01*
X97791652Y-77814345D01*
X97867843Y-77852441D01*
X98172605Y-78423869D02*
X98439272Y-78042917D01*
X98629748Y-78423869D02*
X98629748Y-77623869D01*
X98324986Y-77623869D01*
X98248795Y-77661965D01*
X98210700Y-77700060D01*
X98172605Y-77776250D01*
X98172605Y-77890536D01*
X98210700Y-77966726D01*
X98248795Y-78004822D01*
X98324986Y-78042917D01*
X98629748Y-78042917D01*
X97867843Y-77700060D02*
X97829748Y-77661965D01*
X97753557Y-77623869D01*
X97563081Y-77623869D01*
X97486891Y-77661965D01*
X97448795Y-77700060D01*
X97410700Y-77776250D01*
X97410700Y-77852441D01*
X97448795Y-77966726D01*
X97905938Y-78423869D01*
X97410700Y-78423869D01*
X104761904Y-77509523D02*
X103961904Y-77509523D01*
X103961904Y-77814285D01*
X104000000Y-77890476D01*
X104038095Y-77928571D01*
X104114285Y-77966666D01*
X104228571Y-77966666D01*
X104304761Y-77928571D01*
X104342857Y-77890476D01*
X104380952Y-77814285D01*
X104380952Y-77509523D01*
X104038095Y-78271428D02*
X104000000Y-78309523D01*
X103961904Y-78385714D01*
X103961904Y-78576190D01*
X104000000Y-78652380D01*
X104038095Y-78690476D01*
X104114285Y-78728571D01*
X104190476Y-78728571D01*
X104304761Y-78690476D01*
X104761904Y-78233333D01*
X104761904Y-78728571D01*
X104761904Y-79909523D02*
X103961904Y-79909523D01*
X103961904Y-80214285D01*
X104000000Y-80290476D01*
X104038095Y-80328571D01*
X104114285Y-80366666D01*
X104228571Y-80366666D01*
X104304761Y-80328571D01*
X104342857Y-80290476D01*
X104380952Y-80214285D01*
X104380952Y-79909523D01*
X104761904Y-81128571D02*
X104761904Y-80671428D01*
X104761904Y-80900000D02*
X103961904Y-80900000D01*
X104076190Y-80823809D01*
X104152380Y-80747619D01*
X104190476Y-80671428D01*
X110614285Y-78961904D02*
X110995238Y-78961904D01*
X110995238Y-78161904D01*
X110347619Y-78542857D02*
X110080952Y-78542857D01*
X109966666Y-78961904D02*
X110347619Y-78961904D01*
X110347619Y-78161904D01*
X109966666Y-78161904D01*
X109623809Y-78961904D02*
X109623809Y-78161904D01*
X109433333Y-78161904D01*
X109319047Y-78200000D01*
X109242857Y-78276190D01*
X109204761Y-78352380D01*
X109166666Y-78504761D01*
X109166666Y-78619047D01*
X109204761Y-78771428D01*
X109242857Y-78847619D01*
X109319047Y-78923809D01*
X109433333Y-78961904D01*
X109623809Y-78961904D01*
X110614285Y-78961904D02*
X110995238Y-78961904D01*
X110995238Y-78161904D01*
X110347619Y-78542857D02*
X110080952Y-78542857D01*
X109966666Y-78961904D02*
X110347619Y-78961904D01*
X110347619Y-78161904D01*
X109966666Y-78161904D01*
X109623809Y-78961904D02*
X109623809Y-78161904D01*
X109433333Y-78161904D01*
X109319047Y-78200000D01*
X109242857Y-78276190D01*
X109204761Y-78352380D01*
X109166666Y-78504761D01*
X109166666Y-78619047D01*
X109204761Y-78771428D01*
X109242857Y-78847619D01*
X109319047Y-78923809D01*
X109433333Y-78961904D01*
X109623809Y-78961904D01*
X111166666Y-80561904D02*
X110900000Y-81361904D01*
X110633333Y-80561904D01*
X109909523Y-81285714D02*
X109947619Y-81323809D01*
X110061904Y-81361904D01*
X110138095Y-81361904D01*
X110252380Y-81323809D01*
X110328571Y-81247619D01*
X110366666Y-81171428D01*
X110404761Y-81019047D01*
X110404761Y-80904761D01*
X110366666Y-80752380D01*
X110328571Y-80676190D01*
X110252380Y-80600000D01*
X110138095Y-80561904D01*
X110061904Y-80561904D01*
X109947619Y-80600000D01*
X109909523Y-80638095D01*
X109109523Y-81285714D02*
X109147619Y-81323809D01*
X109261904Y-81361904D01*
X109338095Y-81361904D01*
X109452380Y-81323809D01*
X109528571Y-81247619D01*
X109566666Y-81171428D01*
X109604761Y-81019047D01*
X109604761Y-80904761D01*
X109566666Y-80752380D01*
X109528571Y-80676190D01*
X109452380Y-80600000D01*
X109338095Y-80561904D01*
X109261904Y-80561904D01*
X109147619Y-80600000D01*
X109109523Y-80638095D01*
X111166666Y-80561904D02*
X110900000Y-81361904D01*
X110633333Y-80561904D01*
X109909523Y-81285714D02*
X109947619Y-81323809D01*
X110061904Y-81361904D01*
X110138095Y-81361904D01*
X110252380Y-81323809D01*
X110328571Y-81247619D01*
X110366666Y-81171428D01*
X110404761Y-81019047D01*
X110404761Y-80904761D01*
X110366666Y-80752380D01*
X110328571Y-80676190D01*
X110252380Y-80600000D01*
X110138095Y-80561904D01*
X110061904Y-80561904D01*
X109947619Y-80600000D01*
X109909523Y-80638095D01*
X109109523Y-81285714D02*
X109147619Y-81323809D01*
X109261904Y-81361904D01*
X109338095Y-81361904D01*
X109452380Y-81323809D01*
X109528571Y-81247619D01*
X109566666Y-81171428D01*
X109604761Y-81019047D01*
X109604761Y-80904761D01*
X109566666Y-80752380D01*
X109528571Y-80676190D01*
X109452380Y-80600000D01*
X109338095Y-80561904D01*
X109261904Y-80561904D01*
X109147619Y-80600000D01*
X109109523Y-80638095D01*
M02*
